/* XPM */
static char * background_xpm[] = {
"80 80 111 2",
"  	c #6C6C6C",
". 	c #696969",
"+ 	c #5D5D5D",
"@ 	c #494949",
"# 	c #2C2C2C",
"$ 	c #070707",
"% 	c #000000",
"& 	c #202020",
"* 	c #414141",
"= 	c #585858",
"- 	c #626262",
"; 	c #4A4A4A",
"> 	c #060606",
", 	c #020202",
"' 	c #040404",
") 	c #050505",
"! 	c #030303",
"~ 	c #010101",
"{ 	c #656565",
"] 	c #5B5B5B",
"^ 	c #323232",
"/ 	c #1A1A1A",
"( 	c #0A0A0A",
"_ 	c #111111",
": 	c #161616",
"< 	c #181818",
"[ 	c #191919",
"} 	c #121212",
"| 	c #171717",
"1 	c #2A2A2A",
"2 	c #434343",
"3 	c #575757",
"4 	c #606060",
"5 	c #4B4B4B",
"6 	c #080808",
"7 	c #0C0C0C",
"8 	c #151515",
"9 	c #101010",
"0 	c #0F0F0F",
"a 	c #141414",
"b 	c #090909",
"c 	c #555555",
"d 	c #4C4C4C",
"e 	c #404040",
"f 	c #343434",
"g 	c #262626",
"h 	c #1F1F1F",
"i 	c #353535",
"j 	c #383838",
"k 	c #393939",
"l 	c #373737",
"m 	c #3E3E3E",
"n 	c #484848",
"o 	c #525252",
"p 	c #272727",
"q 	c #1C1C1C",
"r 	c #292929",
"s 	c #1B1B1B",
"t 	c #4F4F4F",
"u 	c #3C3C3C",
"v 	c #2F2F2F",
"w 	c #4D4D4D",
"x 	c #535353",
"y 	c #515151",
"z 	c #4E4E4E",
"A 	c #3D3D3D",
"B 	c #565656",
"C 	c #616161",
"D 	c #5C5C5C",
"E 	c #444444",
"F 	c #3A3A3A",
"G 	c #333333",
"H 	c #474747",
"I 	c #313131",
"J 	c #131313",
"K 	c #242424",
"L 	c #3B3B3B",
"M 	c #3F3F3F",
"N 	c #2B2B2B",
"O 	c #282828",
"P 	c #2D2D2D",
"Q 	c #1D1D1D",
"R 	c #0B0B0B",
"S 	c #222222",
"T 	c #232323",
"U 	c #252525",
"V 	c #1E1E1E",
"W 	c #212121",
"X 	c #424242",
"Y 	c #363636",
"Z 	c #2E2E2E",
"` 	c #545454",
" .	c #464646",
"..	c #636363",
"+.	c #5F5F5F",
"@.	c #595959",
"#.	c #5A5A5A",
"$.	c #505050",
"%.	c #454545",
"&.	c #303030",
"*.	c #5E5E5E",
"=.	c #646464",
"-.	c #666666",
";.	c #0E0E0E",
">.	c #676767",
",.	c #686868",
"'.	c #6B6B6B",
").	c #6E6E6E",
"!.	c #6D6D6D",
"~.	c #6A6A6A",
"{.	c #0D0D0D",
"  . + @ # $ % % % % % % % % % % % % % % % % % % % % % % & * = - + ; # > % % % , ' ) ! % % % % % % % % % % % % % % % % % % % % % % % % % % % % % % % % % % % ~ ~ ",
". { ] @ ^ / $ ! ) ( _ : < < < < < < < < < [ [ < < : } | 1 2 3 4 ] 5 ^ / 6 ! ! ~ ! $ 7 } 8 8 9 6 ) ( _ : | < < < [ / / / / [ [ < < < < < : _ ( ) 6 0 a a 9 b ! ~ ",
"+ ] c d e f g [ a h # i j k j j j j j j k k k j j j l j m n o = c d e f p / ( % % 7 q 1 ^ ^ r s a h # i j k j j k k k k k k k k j j k j i # h a s r ^ ^ 1 s b % ",
"@ @ d t t ; u r & v * w o x o o o o o o o o o o o o o o y t d ; d z t ; A 1 } % % _ 1 m @ @ A 1 & v * w o x o o o o o o o o o o o o x o w * v & 1 A @ @ m 1 9 % ",
"# ^ e t = B n ^ p j w ] 4 C 4 4 4 4 4 4 4 4 4 4 4 4 C 4 D o E F e z = 3 @ G | % % 8 ^ @ B B n ^ p j w ] 4 C 4 4 4 4 4 4 4 4 4 4 4 4 C 4 ] w j p ^ n B B @ ^ a % ",
") [ f ; B B H I g j w ] 4 C 4 4 4 4 4 4 4 4 4 4 4 4 C 4 ] w k r f n B B @ ^ : % % J I @ B B n I g j w ] 4 C 4 4 4 4 4 4 4 4 4 4 4 4 C 4 ] w j g I H B B @ I J % ",
"% % K L H H L g q # M d y o o o y y y y y o y y y y o y w e N < K F H n u O ( % % $ p u n n L p q P e w y o y y y o o y y y y y y o o y d M # q g L H n u p b % ",
"% ! [ r ^ ^ r s a h # i j k j j k k k k j j j j k k k j i N Q _ [ O ^ ^ 1 q ( % % 6 s 1 G G r s a h # i j k j j j k k k k k k j j j k k i # h a s r ^ ^ 1 q R ~ ",
"S T U O 1 1 O U K g r 1 O S Q V T r 1 p W q h U r r U h s s V S g r N N r g K S S T g r N N r g S h q s h U r r U h Q S p 1 O T Q Q T O N 1 p K U O 1 1 r g K K ",
"X X * * * * * * X X * M Y O < [ 1 l L G K 8 V v k k v V 8 T G m X X * * * X X X X X X X * X X X m G T 8 V Z k k v V : K G L l r < < O l M X X X * * * * * X X X ",
"= = = 3 3 3 3 = = = = ` ; j K K F ; t  .^ & N e w w e N & ^  .x = = 3 3 3 = = = = = = 3 3 3 = = x  .^ & N e w w e N W G  .t ; k K K j ; ` = = = = 3 3 3 3 = = = ",
"- - - - - - - - - ....+.` * N # X ` @.t L O G @ = = @ G O k z + - ..- - - - - - - - - - - - ..- + z k O G @ = = @ G O L t @.` X # # * ` +.....- - - - - - - - - ",
"D D D D D D D + + + + #.$.A r r m t ` ; Y T v %.x x %.&.U Y ; 3 D + D D D + + + + + + D D D + D 3 ; Y U &.%.o o E v K Y ; ` t m r r A $.#.+ + + + D D D D D D D ",
"@ @ @ @ @ @ ; ; ; 5 5 n M &.h h &.m X F O < T Y X X l g q 1 F %.@ @ @ @ ; ; ; ; ; ; ; ; @ @ ; @ %.F r q K Y * e i S < O F X m I & & I e n 5 5 ; ; @ @ @ @ @ @ @ ",
"I I I I I &.&.v Z Z Z # g q _ } h r P O V : [ S r O W : _ s g Z I I I &.&.v Z Z Z Z v &.I ^ ^ I Z g / 9 : T N # U s : V O # r & a J Q p # Z Z Z Z v &.I I I I I ",
"I I I I &.# K / 0 ( ( R 6 , ! 0 V r Z &.v # p h 8 R ! , 7 s g Z I ^ &.# K / 0 $ $ 0 / U P I ^ I Z g / 9 : S N v &.v Z v &.Z r h _ ) ' 6 R ( b 0 [ K # &.I &.&.&.",
"@ @ @ @ H e ^ Q % % % % % % % < Z A %.@ @  .m v < % % % 9 r F E @ @ H e ^ Q % % % % V G e H ; @ %.F r s T G e H @ ; ; ; @ %.A Z < % % % % % % % Q ^ e  .n n H H ",
"D D + + ] ` E Z 9 % % % % % 6 g m $.@.*.*.#.$.m U ! % % Q l 5 3 + *.] ` E Z _ % % _ Z %.` ] *.+ 3 ; Y U v 2 ` ] + + + + + @.$.m g b % % % % % 9 Z E ` ] + + D D ",
"- - =.-.-.4 o m r < ;.7 7 J T l d D { . . { #. .# _ 6 s Z * o *.=.>.-.4 o m N h h N M o 4 -.>.=.+ z k r Y w *.-.-.=...{ -.{ D d l T J 7 7 ;.< r m o 4 >.. ,.,.,.",
"= @.*.{ ,.-.+ $.X G K [ h Z A 5 @.=.'.).).. *.@ v V p l 2 ; y 3 *.{ ,.-.+ $. .e e  .$.+ -.. { *.c %.^ p k y - ,.{ +.D 4 -.,.=.@.5 A Z h [ K G X $.+ >.  !.!.!.!.",
"*  .$.+ -.. { *.c  .^ T # e $.] ..,.'.).).. *.@ &.O k 5 x y 5 n $.D -.,.{ *.@.3 3 @.*.{ ,.-.+ $.X ^ S S k o - { + y d ` 4 ,.,...] $.e # T ^  .c *.{ .   !.!.!.!.",
"W N m o 4 -.>.=.+ z k O ^ n @.- -.>.,.. . { @.%.Z # X ` #.o X i m y +.-.-.=.- - - - =.-.-.4 o m r 8 6 s l t *.*.o M l E B ..>.-.- @.n ^ O k z + =.-.>.,.,.,.,.,.",
"% _ Z E ` ] *.+ 3 ; i K Z 2 x ] + + D + + #.t A O O m t ` ; Y K Z E ` D + + D D D D + + D ` %.Z _ % % _ v  .x o %.&.U Y ; 3 + *.] x 2 Z K i ; = + + D D D D D D ",
"% % Q ^ e H ; ;  .F r [ W f * n @ n H n @  .m Z q q v m X k g J V ^ * n ; @ @ @ @ @ @ ; n * f V % % % ' W i M M f W | p j 2 n ; n * f W [ r L  .; ; n H H H H H ",
"( 9 / K # v &.v N U Q | s U # &.I I &.v Z # p h | < S 1 P O V 8 < W r P &.I I I I I &.v P r S < ;.6 b _ s g # N S : 0 / g Z I ^ &.# U s | Q g # v &.&.&.&.&.&.&.",
"Z Z v &.&.# K s : q U # v &.&.I I I Z p V : [ S 1 Z &.&.&.&.v P O h | < S N &.^ ^ v 1 W < | h p # Z Z Z v &.&.# T : 9 s p v I ^ I &.&.v # g Q | s U # &.I I I I ",
"5 ; ; ; n X f W [ r L  .; ; @ @ @ @ E k p < S i 2 @ ; ; @ ; ; n M v q s Z m H ; ; H A P s q v M n 5 5 ; ; ; n X i K q r F %.@ ; @ @ ; ;  .L r [ W f * n ; @ @ @ ",
"+ + + + ] x 2 Z K Y ; = + + D D + D 3 @ i T Z E ` D + + D + + #.t A O p u t @.*.+ @.t u p O u t #.+ + + + + ] ` 2 v U Y ; 3 D + D D + + = ; i K Z 2 x ] + + D D ",
"- - - ..C @.n ^ O F t + - ..- - ..- + z k O ^ n @.C ..- - ....+.` * N N * ` +.....+.` * N N * ` +.....- - ..C @.n ^ O k z + - ..- - ..- + z k O ^ n @.C ..- - - ",
"3 3 3 = B t e # T ^ %.o 3 = 3 3 = = x  .^ & 1 M z B = 3 3 = = c 5 k K K j ; ` = = ` ; j K K k 5 c = = 3 3 = B t M 1 & ^  .x = = 3 3 = 3 o %.^ S # M t B = 3 3 3 ",
"* * * * e F Z h < K G A * * * * X X m f K : Q Z F e * * * X X e j r < < O l M X X M l O < < r j e X X * * * e F Z V : K G m X X * * X * A G K < h Z F e * * * * ",
"P # P P # p h J ;.| S r # P P N r g T & q q h K r # P P # 1 p T & q / Q S O # P P # O S Q / q & T g r N # P # 1 U h q q h S U r N P P P 1 T | ;.J h O # P # # # ",
"k k k k j ^ p [ } V # i k F j G r s 8 & P i k k j j k k i P & 8 / p ^ Y j j j j j j j j Y ^ p / a h # i j k k k k k i # V _ < p G j F k i # h a / O G j k k j j ",
"$.$.y y t @ F g Q P M d y o $.@ F g Q Z * w o o y y y $.d e P Q p F n t y $.t t t t $.y t n F g q # M d $.y y y o o w e N < T j n $.o y d e Z h O F @ t y y $.$.",
"4 4 4 C +.3 n f N F z ] 4 - +.3  .I g j w ] 4 C 4 4 C 4 ] w k O ^ n @.4 - - C C C C - - 4 = H I p j w ] 4 C 4 4 C 4 ] z F r G H 3 +.- 4 ] w j p I  .3 +.C 4 4 4 ",
"4 4 4 C +.#.z e L E o D C - +.3  .I g j w ] 4 C 4 4 C 4 ] w k 1 l t 4 . '.~.~.~.~.~.~.'.. 4 z l r j w ] 4 C 4 4 C 4 D o E F e w @.4 - 4 ] w j g I  .3 +.C C 4 4 ",
"o o o o o y t w d w t y o x y ; L p Q P e w o x o o x o w * v g j y - '.!.!.        !.!.'.- $.j U Z * w o x o o o o y t w d d t y o x o w e P Q p L ; y x o o o ",
"j j j l F * d c = x @ m k j j G O / a h # i j k j k k k Y N V h j $.- ~.!.            !.~.- $.l h Q N i k k k j l j m n o = c d * F j j i # h 8 s O G j k j j j ",
"| | 8 a q &.H B #.o e r < a < s V & W h q [ < | < < [ [ | {.) / l $.C ~.    '.'.'.'.    ~.C $.l [ ' 7 | [ [ < | J < O M o #.B H I Q a : [ q & S W V / < | | | | ",
"% % % % % & L 5 $.H G 8 % % % a 1 j L f K $ % % % % % % % % % | l $.C ~.    '.'.'.'.    ~.C $.l | % % % % % % % % % a G H $.5 L W % % % $ K f u j 1 J % % % % % ",
"% % % % % J 1 j L f K ( % % % & L 5 $.H G a % % % % % % % % % | l $.C ~.    '.'.'.'.    ~.C $.l | % % % % % % % % % $ T f L j N : % % % a G H $.5 L & % % % % % ",
"| | | | < / Q & W & Q s | a q &. .B #.o e r < a | < < < : 7 ' [ l $.C ~.    '.'.'.'.    ~.C $.l / ' 7 : < < < | | | [ q h W W h q / 8 < O M o #.B  .&.q J 8 | | ",
"j j k k l G O / a h P Y j j F * d c = x n m j l j k k j i N Q h l $.- ~.!.            !.~.- $.j h Q N i j k j j k j i # h a s r f j k k m n o = c d * k l j j j ",
"o o o x y ; F g q P * w o x o $.t w d w t y o o o o x o w e Z U j $.- '.!.!.        !.!.'.- $.j U Z * w o x o o x o w e P q p L ; y x o y t w d d z $.o o o o o ",
"4 4 C C +.3  .&.g j w ] C - +.@.z e L E o D 4 C 4 4 C 4 ] w j O Y z 4 . '.~.~.~.~.~.~.'.. 4 z l r j w ] 4 C 4 4 C 4 ] w j g I  .3 +.- C D o E F M w @.+.C 4 4 4 ",
"4 4 4 C +.3  .I p j w ] 4 - +.3 H G 1 F z ] 4 C 4 4 C 4 ] w j g I H = 4 - - C C C C - - 4 @.n ^ p j w ] 4 C 4 4 C 4 ] w j g &. .3 +.- 4 ] w F 1 G H 3 +.C 4 4 4 ",
"$.$.y y t @ F O h Z e d y o $.n k K [ # e w o o y y y $.d M # q U k n t $.$.t t t t $.y t @ F g q # M d $.y y y o o w * Z q g k @ $.o y d M # q U k n t y y $.$.",
"j j k k l G O / a h # i k F j G O [ } V # i k k k k k j i # h J [ p I Y j l l l l l j j l ^ O / a h # i j k j k k k Y P & a / O G j F k i # V _ < p ^ j k k j j ",
"# # # P N p h J ;.| S r # P P N r U S h q s h U 1 # P # N r g T & q / Q S O N P P N O T V q V W K g r N # # # 1 U & Q Q & S U r N P P P 1 T < ;.a h O # P # # # ",
"* * * * e F Z h < K G A * * * * X X m G K : Q Z F e * * * X X e j r < < O Y m X X M l r [ / 1 j e X X * * * e F Z h < U f m X X * * X * A G U [ h v F e * * * * ",
"3 3 3 = B t M # S ^ %.o 3 = 3 3 = = x  .^ & 1 M t B = 3 3 = = c 5 k K K j ; ` = = ` ; j K U k 5 c = = 3 3 = B t M N W ^  .x = = 3 3 = 3 o  .G T # e t B = 3 3 3 ",
"- - - ..C @.n ^ O k z + - ..- - ..- + z k O ^ n @.C ..- - ....+.` * N N * ` +.....+.` * # # * ` +.....- - ..C @.n ^ O k z + - ..- - ..- + t F r G n @.C ..- - - ",
"D D + + ] ` E v g Y ; = + *.+ + + D 3 ; Y U v E ` D + + D + + #.t u O p u t #.*.*.@.t u p O A t #.+ + D + + ] x 2 Z T i @ 3 D + + + *.+ = ; Y g v E ` ] + + D D ",
"@ @ ; ; n X i U V N L  .5 5 ; ; ; @ %.F r q U Y 2 @ ; ; @ ; ; n M v q q Z m H ; ; H A P s q v M n 5 ; @ @ ; n * G W < p k %.; 5 5 5 5 ;  .L N Q K i X n ; @ @ @ ",
"^ ^ ^ ^ &.# T < } / K N Z Z Z Z &.&.Z g / 9 a & r Z &.I I I v P p h | < S N I ^ ^ &.1 W < | h O P &.&.I I I &.# K / : V O v I &.v v v Z N T < 9 : S # &.I I I I ",
"^ ^ ^ ^ &.# T | ( > 6 7 7 ( {.: S 1 # g / ( ~ , R | S 1 P O V 8 < W r Z &.I I I I I &.v P r W [ : V O Z I I &.&.v Z Z v &.&.N S < 0 R R ( ) ~ > 8 S N &.I I I I ",
"@ @ @ @ H e f W $ % % % % % % 8 Z u e k O ;.% % % < v A e j U J h f 2 @ ; @ n n n @ @ ; n * ^ V a U j E n @ n H n n @ ; ; H m Z : % % % % % % ! & G e  .n n H H ",
"D D + + ] ` %.v a % % % % % $ g M t ` 5 j q % % ' U M t ` ; Y K Z E ` D + + D D D D + + ] ` E Z K i @ 3 D + D D D + + + + @.t m U ) % % % % % J v %.` ] + + D D ",
"- - =.-.-.4 o m r | 7 b R a K j w D 4 =  .v s $ } P n #.4 3  .Y L d #.- -.>.>.-.=...=.-.-.+.y m i e y *.=.-.>.,.,.,.>.>.{ 4 3 n f S J R ( 7 | r m o 4 >.. ,.,.,.",
"= @.*.{ ,.-.+ $.X G T < h Z m d #.=.>.C c  .l g V v ; *.-.C c ; n w c D ..,.. -.4 D *.=.,.-.D $.n @ $.3 *.=..   !.!.~.-.4 #.x w  .u v h < T G X $.+ >.  !.!.!.!.",
"*  .$.+ -.. { *.`  .^ T # e y ] ..,.. >.C = 5 j O &.@ *.>.>.C #.o 5 n d @...>.4 ` 5 $.D -.,.{ *.3 $.@ n $.D -.  ).!.. 4 ` ; @ t x t * P T ^  .` *.{ .   !.!.!.!.",
"W N m o 4 -.>.=.+ z k O ^ n @.- -.>.>.>.{ 4 ` e # Z %.@.=.>.-.4 B  .l k d ] 4 3 %.Y m y +.-.>.=.*.y e i m y 4 >.~.,...B E Y u w @.= @ G O k z + =.-.>.,.,.,.,.,.",
"% _ Z E ` ] *.+ 3 @ i K Z E ` D + + D + + #.t A O O A t #.*.*.#.t u p O A t ` ; Y T Z 2 x ] *.+ 3 ; Y U v 2 ` ] *.+ = ; Y U &.%.x x %.v T i @ 3 D + D D D D D D ",
"% % Q ^ e H @ @ E k p < S i 2 @ ; n n @ ; n M v Q q Z m H ; ; H A # | | # L e l U } Q I e H ; @ %.k O < & ^ e H @ @ E j U a & i X X Y T < p k E n @ n H H H H H ",
"b 0 [ K # &.I I Z p V : [ S 1 Z v &.&.&.v P O & < < h p # v I v 1 W | | W r # p Q 8 / T # &.^ ^ v p / 0 8 W N v &.Z N K s a [ S r r S [ : V O Z I I &.&.&.&.&.&.",
"Z Z Z v &.I I I &.&.v P p h | < S 1 P O V : / T 1 1 T / : V O v &.&.v Z v &.&.&.v Z v v &.I ^ ^ v p s 9 : T N # U s : Q U 1 p & | : h p P v &.I I I I I I I I I ",
"; ; ; @ @ @ @ @ @ ; ; n M v q q v m X F r [ T Y X X Y T < p k %.@ 5 ; ; ; @ @ @ ; ; ; ; @ @ ; @ %.F 1 q K Y * e i S < 1 L 2 M &.Q q v M n ; ; @ @ @ @ @ @ @ @ @ ",
"+ + + D D D D D D + + #.t A O O m t ` ; l K &.%.x x %.v K i @ 3 D + + + D D D D + + + D D D + D 3 ; Y U &.%.o o E v K l 5 c t m O O u t #.+ + D D D D D D D D D ",
"- - - - - - - - - ....+.` * # # X ` #.t L r f @ = = @ G O k z + - ..- - - - - - - - - - - - ..- + z k O G @ = = @ G O L t @.` X # # * ` +.....- - - - - - - - - ",
"= = = = = = 3 3 3 = = c 5 k K K k ; t  .G W # e w w e N & I %.o 3 = = = 3 3 3 3 3 = = 3 3 3 = = x  .^ W N e w w e N & ^  .t ; k K K j ; ` = = = = 3 3 3 3 = = = ",
"X X X X X X * * * X X e j r [ [ 1 l L G K : V v k k v V : T ^ A * X X X * * * * * X * * * * X X m f K : V v k k v V 8 K G F l r [ < O l M * X X X * * * * X X X ",
"T T T S T U p 1 N r p T & Q s Q T O 1 p W Q h U r r U h Q W g 1 1 p U U p 1 N r g K U O 1 N O U S h q q & U r r U h Q W g r O T V Q S O 1 r g K g r N N r g T S ",
"% % % % ' 8 g &.G P & a s O G j k k k k k k j j j j k k k k k Y &.K : | K &.G P & a s r ^ ^ O [ _ V # i k k k j k k k k j j j j j k k j i # h a s r ^ ^ 1 s 6 % ",
"% % % % % V Y %.@ e P q g L ; y o y y y y o y y y y y o o o y z E G & & f E @ e Z Q p L H H F K < # e w o o y y y o o y y y y y o o o y d M # q p L n n u p $ % ",
"( b ' % {.r 2 x = w k g I  .3 +.C 4 4 4 4 4 4 4 4 4 4 4 4 C C + o M 1 N * o = z F p ^ n B B n G r F z ] 4 C 4 4 4 4 4 4 4 4 4 4 4 4 C 4 ] w j g I n B B @ I J % ",
"P # U / < 1 2 x = z F p I H 3 +.C C 4 4 4 4 4 4 4 4 4 4 4 C C + x M N N * x = z F O ^ n B = z e F E o D 4 C 4 4 4 4 4 4 4 4 4 4 4 4 C 4 ] w j p ^ n B B @ ^ a % ",
"@ H m v & K j  .5 X &.& r u ; y x o o o o o o o o o o o o o o t  .i T K l  .5 X I W 1 u ; t t d ; d t y o o o o o o o o o o o o o o x o w * v & 1 A @ @ m 1 9 % ",
"+ #.$.m O / T v G P & 8 s O G l k j j j k k k k k k j j j k k l &.K | | K &.G P & a [ p f e d c = x n m j l j j j j j j j j j j j k k k i # h a s r ^ ^ 1 s b % ",
". { #. .# 9 > _ : J {.6 ( 9 8 | < < < < [ / / [ [ < < < < < [ | a ;.$ $ {.J 8 _ ( ) ' 6 / G 5 ] 4 3 2 1 < J | < < < < < < < < < < [ [ < | } R > b 9 8 8 _ ( ' ~ ",
"  . + @ P R % % % % % , % % % % % % % % % % % % % % % % % % % % % % % % % % % % % % % % $ P ; + - = X W % % % % % % % % % % % % % % % % % % % % % % % % % % , , "};
