/* XPM */
static char *result[] = {
/* columns rows colors chars-per-pixel */
"50 46 219 2 ",
"   c gray8",
".  c #161616",
"X  c #181818",
"o  c gray11",
"O  c #1D1D1D",
"+  c gray12",
"@  c gray13",
"#  c gray14",
"$  c gray16",
"%  c #2A2A2A",
"&  c gray17",
"*  c #2C2C2C",
"=  c #2D2D2D",
"-  c gray18",
";  c #2F2F2F",
":  c gray19",
">  c #313131",
",  c #323232",
"<  c gray20",
"1  c #343434",
"2  c #353535",
"3  c gray21",
"4  c #373737",
"5  c gray22",
"6  c #393939",
"7  c #3A3A3A",
"8  c gray23",
"9  c #3C3C3C",
"0  c gray24",
"q  c #3E3E3E",
"w  c #3F3F3F",
"e  c gray25",
"r  c #414141",
"t  c gray26",
"y  c #434343",
"u  c #444444",
"i  c gray27",
"p  c #464646",
"a  c gray28",
"s  c #484848",
"d  c #494949",
"f  c gray29",
"g  c #4B4B4B",
"h  c #4C4C4C",
"j  c gray30",
"k  c #4E4E4E",
"l  c gray31",
"z  c #505050",
"x  c #515151",
"c  c gray32",
"v  c #535353",
"b  c gray33",
"n  c #555555",
"m  c #565656",
"M  c gray34",
"N  c #585858",
"B  c gray35",
"V  c #5A5A5A",
"C  c #5B5B5B",
"Z  c gray36",
"A  c #5D5D5D",
"S  c gray37",
"D  c #5F5F5F",
"F  c gray38",
"G  c #626262",
"H  c gray39",
"J  c #646464",
"K  c #656565",
"L  c gray40",
"P  c #676767",
"I  c #686868",
"U  c DimGray",
"Y  c #6A6A6A",
"T  c gray42",
"R  c #6C6C6C",
"E  c #6D6D6D",
"W  c gray43",
"Q  c #6F6F6F",
"!  c gray44",
"~  c #717171",
"^  c #727272",
"/  c gray45",
"(  c #747474",
")  c gray46",
"_  c #767676",
"`  c #777777",
"'  c gray47",
"]  c #797979",
"[  c gray48",
"{  c #7B7B7B",
"}  c #7C7C7C",
"|  c gray49",
" . c #7E7E7E",
".. c gray50",
"X. c #808080",
"o. c #818181",
"O. c gray51",
"+. c #838383",
"@. c #848484",
"#. c gray52",
"$. c #868686",
"%. c gray53",
"&. c #888888",
"*. c #898989",
"=. c gray54",
"-. c #8B8B8B",
";. c gray55",
":. c #8D8D8D",
">. c #8E8E8E",
",. c gray56",
"<. c #909090",
"1. c gray57",
"2. c #929292",
"3. c #939393",
"4. c gray58",
"5. c #959595",
"6. c gray59",
"7. c #989898",
"8. c gray60",
"9. c #9A9A9A",
"0. c #9B9B9B",
"q. c gray61",
"w. c #9D9D9D",
"e. c gray62",
"r. c #9F9F9F",
"t. c #A0A0A0",
"y. c gray63",
"u. c #A2A2A2",
"i. c gray64",
"p. c #A4A4A4",
"a. c #A5A5A5",
"s. c gray65",
"d. c #A7A7A7",
"f. c gray66",
"g. c #A9A9A9",
"h. c #AAAAAA",
"j. c gray67",
"k. c #ACACAC",
"l. c gray68",
"z. c #AEAEAE",
"x. c #AFAFAF",
"c. c gray69",
"v. c #B1B1B1",
"b. c #B2B2B2",
"n. c gray70",
"m. c #B4B4B4",
"M. c gray71",
"N. c #B6B6B6",
"B. c #B7B7B7",
"V. c gray73",
"C. c #BBBBBB",
"Z. c #BCBCBC",
"A. c gray74",
"S. c gray",
"D. c gray75",
"F. c #C0C0C0",
"G. c #C1C1C1",
"H. c gray76",
"J. c #C3C3C3",
"K. c gray77",
"L. c #C5C5C5",
"P. c #C6C6C6",
"I. c gray78",
"U. c #C8C8C8",
"Y. c gray79",
"T. c #CACACA",
"R. c #CBCBCB",
"E. c gray80",
"W. c #CDCDCD",
"Q. c #CECECE",
"!. c gray81",
"~. c #D0D0D0",
"^. c gray82",
"/. c #D2D2D2",
"(. c LightGray",
"). c gray83",
"_. c #D5D5D5",
"`. c gray84",
"'. c #D7D7D7",
"]. c #D8D8D8",
"[. c gray85",
"{. c #DADADA",
"}. c gray86",
"|. c gainsboro",
" X c #DDDDDD",
".X c gray87",
"XX c #DFDFDF",
"oX c gray88",
"OX c #E2E2E2",
"+X c gray89",
"@X c #E4E4E4",
"#X c gray90",
"$X c #E6E6E6",
"%X c #E7E7E7",
"&X c gray91",
"*X c #E9E9E9",
"=X c #EAEAEA",
"-X c gray92",
";X c #ECECEC",
":X c gray93",
">X c #EEEEEE",
",X c #EFEFEF",
"<X c gray94",
"1X c #F1F1F1",
"2X c gray95",
"3X c #F3F3F3",
"4X c #F4F4F4",
"5X c gray96",
"6X c #F6F6F6",
"7X c gray97",
"8X c #F8F8F8",
"9X c #F9F9F9",
"0X c gray98",
"qX c #FBFBFB",
"wX c gray99",
"eX c #FDFDFD",
"rX c #FEFEFE",
"tX c white",
"yX c None",
/* pixels */
"yXyXyXyXyXyXyXyXyXyXyXyXyXyXyXyXyXqXqXqXqXqXqXqXqXqXqXwXwXeXrXrXtXyXyXyXyXyXyXyXyXyXyXyXyXyXyXyXyXyX",
"yXyXyXyXyXyXyXyXyXyXyXyXyXyXyXyX4X3X3X3X3X3X3X3X3X3X4X6X7X0XqXeXrXtXyXyXyXyXyXyXyXyXyXyXyXyXyXyXyXyX",
"yXyXyXyXyXyXyXyXyXyXyXyXyXyXyXyX=X&X$X#X#X#X#X#X#X$X&X-X,X4X8XqXeXrXyXyXyXyXyXyXyXyXyXyXyXyXyXyXyXyX",
"yXyXyXyXyXyXyXyXyXyXyXyXyXyXyX#X X'.(.^.!.!.!.!.!.^.).{.OX=X2X8XqXeXrXyXyXyXyXyXyXyXyXyXyXyXyXyXyXyX",
"yXyXyXyXyXyXyXyXyXyXyXyXyXyX%X|.~.L.Z.N.n.b.b.b.b.M.C.L./.XX=X3X8XqXeXrXyXyXyXyXyXyXyXyXyXyXyXyXyXyX",
"yXyXyXyXyXyXyXyXyXyXyXyXyX&XXX^.H.b.i.7.2.<.,.,.<.5.e.k.S.~.XX-X3X8XqXeXrXyXyXyXyXyXyXyXyXyXyXyXyXyX",
"yXyXyXyXyXyXyXyXyXyXyXyX$X.X(.L.b.e.*.] Q Y U U T ^ ..2.g.S.^.oX=X2X7X0XeXrXyXyXyXyXyXyXyXyXyXyXyXyX",
"yXyXyXyXyXyXyXyXyXyXyX@X}.~.K.m.t.=.^ A l s p p d c G ] 2.h.D.^.XX*X2X8XqXrXtXyXyXyXyXyXyXyXyXyXyXyX",
"yXyXyXyXyXyXyXyXyXyX=X.X^.H.b.t.-.( A s 7 1 < < 2 9 h G { 3.g.S.~.XX;X5X0XeXtXtXyXyXyXyXyXyXyXyXyXyX",
"yXyXyXyXyXyXyXyXyX3X&X[.I.n.e.*.( D h w 9 q r e 0 9 r l H [ 2.g.G._.#X2X9XeXtXtXtXyXyXyXyXyXyXyXyXyX",
"yXyXyXyXyXyXyXyXyX2X%X`.G.f.;.^ Z g y p l B S S M k i y k F [ 6.b.E.oX,X8XeXtXtXtXyXyXyXyXyXyXyXyXyX",
"yXyXyXyXyXyXyXyXyX2X$X).A.t.X.F d q i m I `  . .) L v y w j I &.f.L. X>X8XeXtXtXtXyXyXyXyXyXyXyXyXyX",
"yXyXyXyXyXyXyXyX9X2X$X(.C.q.] N t e v T O.2.0.0.<. .P l w u S X.i.H.}.:X7XeXtXtXtXtXyXyXyXyXyXyXyXyX",
"yXyXyXyXyXyXyXyX9X2X$X(.V.0.' V f x P O.8.j.M.m.g.6.| H k g S  .y.G.{.:X7XeXtXtXtXtXyXyXyXyXyXyXyXyX",
"yXyXyXyXyXyXyXyX9X2X$X(.V.q.} H Z U ..8.x.F.T.Y.S.k.4.{ L Z L o.u.G.{.:X7XeXtXtXtXtXyXyXyXyXyXyXyXyX",
"yXyXyXyXyXyXyXyX9X2X$X(.C.e.O.~ / +.8.x.J./.{.[.~.F.k.5.X.~ / $.p.G.{.:X7XeXtXtXtXtXyXyXyXyXyXyXyXyX",
"yXyXyXyXyXyXyXyX9X2X$X(.C.t.&...%.9.x.J.).oX$X#X.X^.F.k.6.#...-.a.H.{.:X7XeXtXtXtXtXyXyXyXyXyXyXyXyX",
"yXyXyXyXyXyXyXyX9X2X$X(.Z.u.:.=.6.j.F.^.XX*X>X:X&X X!.Z.d.4.*.<.d.H.{.:X7XeXtXtXtXtXyXyXyXyXyXyXyXyX",
"yXyXyXyXyXyXyXyX9X2X$X(.Z.i.<.,.e.n.U.[.#X:X1X1X;X+X`.L.c.0.>.3.f.H.{.:X7XeXtXtXtXtXyXyXyXyXyXyXyXyX",
"yXyXyXyXyXyXyXyX9X2X$X(.Z.i.<.>.q.v.P.'.@X;X1X<X-XOX).J.z.8.:.2.f.H.{.:X7XeXtXtXtXtXyXyXyXyXyXyXyXyX",
"yXyXyXyXyXyXyXyX9X2X$X(.Z.u.;.$.2.s.C.W.|.%X;X;X#X{.T.B.u.,.$.,.s.H.{.:X7XeXtXtXtXtXyXyXyXyXyXyXyXyX",
"yXyXyXyXyXyXyXyX9X2X$X(.C.r.$.[ o.3.g.S.^.XX$X#X XQ.C.a.,...{ *.a.G.{.:X7XeXtXtXtXtXyXyXyXyXyXyXyXyX",
"yXyXyXyXyXyXyXyX9X2X$X(.C.w...R T { 3.l.K.`.XX.X(.G.g.,.' Y W @.i.G.{.:X7XeXtXtXtXtXyXyXyXyXyXyXyXyX",
"yXyXyXyXyXyXyXyX9X2X$X(.V.q.[ D m J ..e.V.Q.[.].R.M.8.{ F m H X.u.G.{.:X7XeXtXtXtXtXyXyXyXyXyXyXyXyX",
"yXyXyXyXyXyXyXyX9X2X$X(.V.0.` m a v ~ 4.n.Y._.).P.z.>.R l a C | y.G.{.:X7XeXtXtXtXtXyXyXyXyXyXyXyXyX",
"yXyXyXyXyXyXyXyX9X2X$X(.V.9.) c 0 d U :.l.K.^.~.G.f.%.H i w M } t.F.{.:X7XeXtXtXtXtXyXyXyXyXyXyXyXyX",
"yXyXyXyXyXyXyXyX9X2X$X(.V.9.) z 6 y H %.d.S.T.Y.C.u.O.A w 8 m { t.F.{.:X7XeXtXtXtXtXyXyXyXyXyXyXyXyX",
"yXyXyXyXyXyXyXyX9X2X$X(.V.9.) z 5 w A ..w.n.D.S.c.8.[ N 9 7 m { t.F.{.:X7XeXtXtXtXtXyXyXyXyXyXyXyXyX",
"yXyXyXyXyXyXyXyX9X2X$X(.V.9.) z 3 6 b ( ,.i.z.l.t.-.W l 3 6 m { t.F.{.:X7XeXtXtXtXtXyXyXyXyXyXyXyXyX",
"yXyXyXyXyXyXyXyX9X2X$X(.V.9.) z 1 , d L  .<.8.7.:.[ F i : 4 m { t.F.{.:X7XeXtXtXtXtXyXyXyXyXyXyXyXyX",
"yXyXyXyXyXyXyXyX9X2X$X(.V.9.) z , = e B Q ..%.%.| R n 9 & 3 m { t.F.{.:X7XeXtXtXtXtXyXyXyXyXyXyXyXyX",
"yXyXyXyXyXyXyXyX9X2X$X(.V.9.) z , % 0 n Y ] o.X.` L x 6 $ 3 m { t.F.{.:X7XeXtXtXtXtXyXyXyXyXyXyXyXyX",
"yXyXyXyXyXyXyXyX9X2X$X(.V.9.) z < - t Z ^ O.-.=.X.Q N q * 3 m { t.F.{.:X7XeXtXtXtXtXyXyXyXyXyXyXyXyX",
"yXyXyXyXyXyXyXyX9X2X$X(.V.9.) z 1 < g P X.2.q.0.<.} H p > 4 m { t.F.{.:X7XeXtXtXtXtXyXyXyXyXyXyXyXyX",
"yXyXyXyXyXyXyXyX9X2X$X(.V.9.) z 2 5 c ~ ;.t.h.g.w.&.R j 2 5 m { t.F.{.:X7XeXtXtXtXtXyXyXyXyXyXyXyXyX",
"yXyXyXyXyXyXyXyX9X2X$X(.V.9.) z 3 7 m _ 1.s.v.c.i.:.! z 4 6 m { t.F.{.:X7XeXtXtXtXtXyXyXyXyXyXyXyXyX",
"yXyXyXyXyXyXyXyX9X2X$X(.V.9.) z 3 5 v ^ :.y.j.h.e.*.E k 3 5 m { t.F.{.:X7XeXtXtXtXtXyXyXyXyXyXyXyXyX",
"yXyXyXyXyXyXyXyX9X2X$X(.V.9.) z 1 < g I X.3.q.0.<.| H p > 4 m { t.F.{.:X7XeXtXtXtXtXyXyXyXyXyXyXyXyX",
"yXyXyXyXyXyXyXyXyX2X$X(.V.9.) z , * e N W  .$.$.} T b 9 & 3 m { t.F.{.:X7XeXtXtXtXyXyXyXyXyXyXyXyXyX",
"yXyXyXyXyXyXyXyXyX2X$X(.V.9.) z : # , p N K R T H n y - # 2 m { t.F.{.:X7XeXtXtXtXyXyXyXyXyXyXyXyXyX",
"yXyXyXyXyXyXyXyXyX2X$X(.V.9.) z ; o # < r g x z f w > @ O 1 m { t.F.{.:X7XeXtXtXtXyXyXyXyXyXyXyXyXyX",
"yXyXyXyXyXyXyXyXyXyXyX(.V.9.) l - . . @ & < 4 3 , % +   X < m { t.F.{.:X7XeXtXyXyXyXyXyXyXyXyXyXyXyX",
"yXyXyXyXyXyXyXyXyXyXyXyXyXyXyXyXyXyXyXyXyXyXyXyXyXyXyXyXyXyXyXyXyXyXyXyXyXyXyXyXyXyXyXyXyXyXyXyXyXyX",
"yXyXyXyXyXyXyXyXyXyXyXyXyXyXyXyXyXyXyXyXyXyXyXyXyXyXyXyXyXyXyXyXyXyXyXyXyXyXyXyXyXyXyXyXyXyXyXyXyXyX",
"yXyXyXyXyXyXyXyXyXyXyXyXyXyXyXyXyXyXyXyXyXyXyXyXyXyXyXyXyXyXyXyXyXyXyXyXyXyXyXyXyXyXyXyXyXyXyXyXyXyX",
"yXyXyXyXyXyXyXyXyXyXyXyXyXyXyXyXyXyXyXyXyXyXyXyXyXyXyXyXyXyXyXyXyXyXyXyXyXyXyXyXyXyXyXyXyXyXyXyXyXyX"
};
