/* XPM */
static char *result[] = {
/* columns rows colors chars-per-pixel */
"60 60 243 2 ",
"   c #090A0B",
".  c #180B0A",
"X  c #0E1213",
"o  c #131415",
"O  c #151A1C",
"+  c #1C1C1B",
"@  c #171516",
"#  c #13130E",
"$  c #3B0808",
"%  c #231B1A",
"&  c #261715",
"*  c #381A18",
"=  c #310D09",
"-  c #2A261C",
";  c #362917",
":  c #3C331C",
">  c #171D21",
",  c #1A2125",
"<  c #1E262A",
"1  c #252423",
"2  c #2A2A2A",
"3  c #272827",
"4  c #342E22",
"5  c #3A3627",
"6  c #262E34",
"7  c #30373A",
"8  c #271D20",
"9  c #4B0404",
"0  c #460808",
"q  c #540404",
"w  c #5C0404",
"e  c #590C09",
"r  c #481107",
"t  c #461917",
"y  c #5A1916",
"u  c #54100B",
"i  c #650404",
"p  c #690704",
"a  c #740404",
"s  c #7B0404",
"d  c #780C07",
"f  c #7A190B",
"g  c #661713",
"h  c #761C13",
"j  c #6A180A",
"k  c #492714",
"l  c #44391E",
"z  c #503113",
"x  c #71310E",
"c  c #473B23",
"v  c #4F3435",
"b  c #6D3227",
"n  c #53441D",
"m  c #69461C",
"M  c #744715",
"N  c #564C2B",
"B  c #494734",
"V  c #564C2B",
"C  c #675628",
"Z  c #645B39",
"A  c #744C2C",
"S  c #766A35",
"D  c #756A31",
"F  c #2D3A43",
"G  c #615E42",
"H  c #686344",
"J  c #76704F",
"K  c #707070",
"L  c #870705",
"P  c #9A0404",
"I  c #891608",
"U  c #981807",
"Y  c #841C14",
"T  c #A70606",
"R  c #B70606",
"E  c #A51807",
"W  c #B31D02",
"Q  c #BB1A02",
"!  c #A51C11",
"~  c #9A250C",
"^  c #8E2E11",
"/  c #A62509",
"(  c #B42301",
")  c #BC2303",
"_  c #B82807",
"`  c #B93508",
"'  c #AD3913",
"]  c #B63914",
"[  c #AB2A10",
"{  c #9D3B22",
"}  c #C80606",
"|  c #D50807",
" . c #C91B01",
".. c #CB2503",
"X. c #CB2B02",
"o. c #C52804",
"O. c #D42C01",
"+. c #DB2B02",
"@. c #CB3202",
"#. c #C83707",
"$. c #D43103",
"%. c #DB3401",
"&. c #DB3C01",
"*. c #D43A05",
"=. c #CB3413",
"-. c #E53902",
";. c #E7360C",
":. c #85460C",
">. c #99590C",
",. c #904E15",
"<. c #A5470B",
"1. c #A8580A",
"2. c #BB4617",
"3. c #AE4F10",
"4. c #996618",
"5. c #B6650B",
"6. c #BA7816",
"7. c #B06F14",
"8. c #8D5A24",
"9. c #B54D2B",
"0. c #8A7D3C",
"q. c #857639",
"w. c #936E37",
"e. c #B2712F",
"r. c #CB531E",
"t. c #D24816",
"y. c #EA4A02",
"u. c #E74500",
"i. c #F74B02",
"p. c #EB5301",
"a. c #F65C00",
"s. c #FA5501",
"d. c #E64416",
"f. c #C37712",
"g. c #FA6300",
"h. c #FD6B00",
"j. c #FE7C00",
"k. c #FC7200",
"l. c #D45A25",
"z. c #C9522A",
"x. c #D55D2E",
"c. c #867B48",
"v. c #997748",
"b. c #877C56",
"n. c #8C6F4C",
"m. c #B0744C",
"M. c #CD6F4A",
"N. c #BA811D",
"B. c #8C813D",
"V. c #BA8525",
"C. c #AF8E35",
"Z. c #C8851B",
"A. c #DC941D",
"S. c #D28A1A",
"D. c #FF8A00",
"F. c #FF9400",
"G. c #FF9900",
"H. c #C9952A",
"J. c #CC942E",
"K. c #E09C21",
"L. c #D8AB37",
"P. c #E6A628",
"I. c #EFB733",
"U. c #FBC73B",
"Y. c #8D8245",
"T. c #94884A",
"R. c #958A56",
"E. c #9D9353",
"W. c #9D9359",
"Q. c #938A51",
"!. c #A59B5D",
"~. c #A49759",
"^. c #AD8D53",
"/. c #ABA15E",
"(. c #958E66",
"). c #9B9467",
"_. c #958F70",
"`. c #A39C6E",
"'. c #A79A64",
"]. c #AC996C",
"[. c #ADA364",
"{. c #ACA369",
"}. c #B5AB6B",
"|. c #B4A968",
" X c #B3AB74",
".X c #B8AC74",
"XX c #BDB474",
"oX c #BDB47C",
"OX c #B4AA74",
"+X c #C4BA76",
"@X c #C4BA7A",
"#X c #C4B977",
"$X c #C9AB6F",
"%X c #DD805D",
"&X c #F6D045",
"*X c #CCC27D",
"=X c #D0C67F",
"-X c #999890",
";X c #A09E91",
":X c #B5AF8D",
">X c gray74",
",X c #D08885",
"<X c #C4BB84",
"1X c #C5BD86",
"2X c #CAB891",
"3X c #CBB7B5",
"4X c #CDC484",
"5X c #CCC48A",
"6X c #D3CA84",
"7X c #D4CA89",
"8X c #DAD18C",
"9X c #CBC496",
"0X c #D4CC93",
"qX c #DCD393",
"wX c #DBD49B",
"eX c #E4DB9B",
"rX c #E3D998",
"tX c #EBE29F",
"yX c #D9D4A9",
"uX c #D2CDAD",
"iX c #E5DBA4",
"pX c #E4DDB2",
"aX c #ECE3A4",
"sX c #EEE5AA",
"dX c #F3EAA9",
"fX c #FAF1AF",
"gX c #EAE3B5",
"hX c #F3ECB7",
"jX c #FEF5B4",
"kX c #FEF6BB",
"lX c #D6D3CE",
"zX c #EBE6C7",
"xX c #F4EEC7",
"cX c #FAF4C7",
"vX c #ECE9D9",
"bX c #FFF9D1",
"nX c #FAF5D9",
"mX c #F0EDDB",
"MX c #F9F6E5",
"NX c #FEFEFD",
"BX c #F8F7F3",
"VX c #F1EFE9",
"CX c None",
/* pixels */
"CXCXCXCXCXCXCXCXCXCXCXCXCXCXCXCXCXCXCXCXCXCXCXCXCXCXCXCXCXCXCXCXCXCXCXCXCXCXCXCXCXCXCXCXCXCXCXCXCXCXCXCXCXCXCXCXCXCXCXCX",
"CXCXCXCXCXCXCXCXCXCXCXCXCXCXCXCXCXCXCXCXCXCXCXCXCXCXCXCXCXCXCXCXCXCXCXCXCXCXCXCXCXCXCXCXCXCXCXCXCXCXCXCXCXCXCXCXCXCXCXCX",
"CXCXCXCXCXCXCXCXCXCXCXCXCXCXCXCXCXCXCXCXCXCXCXCXCXCXCXCXCXU o.CXCXCXCXCXCXCXCXCXCXCXCXCXCXCXCXCXCXCXCXCXCXCXCXCXCXCXCXCX",
"CXCXCXCXCXCXCXCXCXCXCXCXCXCXCXCXCXCXCXCXCXCXCXCXCXCXCXCXCX%.y.( CXCXCXCXCXCXCXCXCXCXCXCXCXCXCXCXCXCXCXCXCXCXCXCXCXCXCXCX",
"CXCXCXCXCXCXCXCXCXCXCXCXCXCXCXCXCXCXCXCXCXCXCXCXCXCXCXCX%.a.h.u.o.CXCXCXCXCXCXCXCXCXCXCXCXCXCXCXCXCXCXCXCXCXCXCXCXCXCXCX",
"CX# @ & CXCXCXCXCXCXCXCXCXCXCXCXCXCXCXCXCXCXCXCXQ $.u.p.k.D.F.j.a.y.&. ._ CXCXCXCXCXCXCXCXCXCXCXCXCXCXCXCXCXCXCXCXCXCXCX",
"CX. $ 9 0 0 CXCXCXCXCXCXCXCXCXCXCXCXb.CXCXQ ..+.$.o.#.y.j.G.G.D.a.*.=...%.+. .CXCXJ CXCXCXCXCXCXCXCXCXCXCXCXd e q 9 . CX",
"CX@ $ e i L L a CXCXCXCXCXCXCXCXCXCXm.z.=. ._ Y y * * ~ u.k.D.g.=.y * * h ~ ..=.=.9.CXCXCXCXCXCXCXCXCXCXCXd P s w u @ CX",
"CXCXCXCX$ L L P s CXCXCXCXCXCXCX( +.O.z.^.n.4 Z 4 3 3 * ) s.h.-.h 3 3 4 Z l b.$XM...&.o.CXCXCXCXCXCXCXL P a L 9 & CXCXCX",
"CXCXCXCXCXw q P P T CXCXCXCXCXX.%._ f C $X<XJ {.J 3 3 1 Y -.s.X.t 3 2 J OXJ 5X@XZ y / $.+.( CXCXCXCXT P P q w CXCXCXCXCX",
"CXCXCXCXCXCX9 a a R L T CXCX&._ Y * % c ~.8XoX'.).4 1 1 g ;.i._ 4 3 5 `.OXoX1XT.n , 8 g / O.@.CXT P R p i q CXCXCXCXCXCX",
"CXCXCXCXCXCXCX9 w P L } W &.` y 1 2 1 l Y.#XqX{.'.Z J (.n.;.d.M.).H Z  X].0X}.q.5 3 6 3 * ^ &.@.} P T i 9 CXCXCXCXCXCXCX",
"CXCXCXCXCXCXCXCXq i a W &.` y 3 2 2 2 l B.[.@XW.{.1XyX9X1XM.x.7XfX8X+X[./.*X~.q.l 3 2 2 3 * / -.X.L p a $ CXCXCXCXCXCXCX",
"CXCXCXCXCXCXCXCX$ 9 I *.@.R g 1 2 2 2 l 0.T.!.oXyXuX1XrXsXM.d.7XjXfXtX6X[./.B.D l 3 2 2 8 g } ) &.` p q CXCXCXCXCXCXCXCX",
"CXCXCXCXCXCXCXCXCXd &.O.E | T y 3 2 1 V S /.4X9X2X0XaXcXBX,XM.gXkXjXjXtX4X|.E.q.l 1 2 1 y T | P E -.( CXCXCXCXCXCXCXCXCX",
"CXCXCXCXCXCXCXCXCX..+.U T R R R * - : D /.*XiXwX:XdXkXNXNX3X,XVXMXkXjXfX8X*X}.Y.C l 1 * R } R T p ) %.CXCXCXCXCXCXCXCXCX",
"CXCXCXCXCXCXCXCX( -.E q T T } | g - Z E.+X6XwX<XeXjXnXNXNX3X,XBXNXnXkXjXdX=X/.E.T.D - g | | R T q p O.%.CXCXCXCXCXCXCXCX",
"CXCXCXCXCXCXCXCX$._ e q L L } } I C B./.=X8XXX0XjXcXNXNXNX3X,XVXNXNXbXjXjXqX[.+X|.T.C U } | L L q $ I %.( CXCXCXCXCXCXCX",
"CXCXCXCXCXCXCXE +.f 0 w s s R R ) q.E.|.=X6X=XdXjXbXNXNXNX3X,XBXNXNXbXjXkXuXXX=X+X~.w...} R a s q $ t ) ..CXCXCXCXCXCXCX",
"CXCXCXCXCXCXCX .W t 0 w i T T R ' w.E./.|.[.eXjXjXbXNXNXNX>X,XVXNXNXbXjXdX:XXX=X+X[.0.] T T s w w t % I  .CXCXCXCXCXCXCX",
"CXCXCXCXCXCXCX .Y % * 9 q T P L ,.B.E.T./.+XrXjXjXbXNXNXNXlX3XBXNXNXbXjXhX9XXX=X+X|.B.8.L d s 9 9 * + t Q W CXCXCXCXCXCX",
"CXCXCXCXCXCXW  .g , & 9 9 P s d ,.q.B.E.*X=XtXfXjXcXNXNXNXBXlXNXNXNXbXaXyX:XXX6X+X|.B.m d p s 9 9 & 1 % E  .CXCXCXCXCXCX",
"CXCXCXCXCXCXO.( * , + 0 q L p d m D T.}.*X=X8XfXjXjXBXNXBXlX>XBXNXNXcXhXyX{.@X=X+X/.B.m d i a 9 0 % 8 1 h $.W CXCXCXCXCX",
"CXCXCXCXCXCX+.Y + ; - $ w s p a m 0.~.}.+X*X=XdXjXjXMXNXlXK K lXNXBXxXpX:X*X=X*XXXE.B.M i w a q $ 4 4 + t o...CXCXCXCXCX",
"CXCXCXCXCXo.O.y % N V * w i 9 e C E.@X8X8X=X=XrXfXjXcXmX;X2 2 ;XVXVXuX:XXX*X6XqXeXoXQ.C 9 9 q 9 ; J Z % & ! %.CXCXCXCXCX",
"CXCXCXCXCXO.o.* l V b.V q $ 0 z Y..X5XdXdXtX8X6XtXjXjXwX7 O O B uXuX9XwXqXqXsXdXdX5XXXY.z $ 9 9 N b.Z l % f -.CXCXCXCXCX",
"CXCXCXCXCXu.@.* Z (. Xb.k 0 $ C ~.Q.H {.8XfXhXrX8XdXfX`.1 < , O (.wXdXeXdXcXcX0XW.H R.R.C r 9 k J W.c.c & Y u...CXCXCXCX",
"CXCXCXCXCXp.y.~ c ~.:X X8.u k q.`.G   - H 1XzXhXrXrXtXJ , 6 < O J aXaXaXcXhX5XH - X G {.0.k r 8.'..XR.l g #.a.*.CXCXCXCX",
"CXCXCXCX%.k.k.u._ m.^.m.,.r z ~.oXG > > + Z 1XxXhXrX5XB , 6 6 O B 9XaXxXhX:XG > O o G oXW.c r ,.m.].w.[ *.g.D.y.( CXCXCX",
"CXCXU $.a.D.G.j.s.i.;.;.*.` ' v.'.A y y t + H 9XnXhX9XB , 7 6 X B 9XcXxX@XZ & 8 y y A ~.w.^ _ *.*.;.;.i.h.D.F.k.-._ CXCX",
"CXCXo.y.h.F.G.D.h.s.s.s.u.u.=.9.M.9.! ! h * , J zXnXyXB O 6 6 X B uXnXwXH % 2 b ! E 9.m.9.` t.u.y.i.i.s.j.F.G.j.s.u.E CX",
"CXCXCXW u.j.D.g.d.r.M.9.^ j m Q.1X].4 & 6 F < 5 :XnXpXJ O < < X J vXgX(.4 3 F 6 8 4 OX2XY.n g x 9.x.z.t.p.j.D.a.X.CXCXCX",
"CXCXCXCX..a.g.r.$X.X'.v.:.& : q.}.7XH o 6 F 6 > G uXnX`.- > X - ;XmX9XB , F 6 , O G wX4XB.5 + z w.T..X$Xm.u.h.&.CXCXCXCX",
"CXCXCXCXCXd.&.A '.7X].J.1.t - D E.4X`.5 O 6 7 < 3 :XMXpXb.+ + b.gXxX`.3 < 6 < X 5  XeX}.D - - M V.{.rXXXZ / p.@.CXCXCXCX",
"CXCXCXCXn.x.=.c S |.}.J.N.4.z l S |.*X(.5 O < < O `.VXxX XW.). XmXxX`.O < < O 5 `.qXoXT.n ; M 6.L.#X#XJ V { &./ CXCXCXCX",
"CXCXCXCXCX=.l.].R.R.~.L.P.S.>.x C B.[.=X).5 > , X _.MXvX:XaXgX<XxXxX`.> , O 5 `.wXoXQ.C k M 5.S.J.T.T.R..Xm.=.I CXCXCXCX",
"CXCXCXCXCX( ;.].qX1X'.Z.H.V.N.7.:.C B.|.4X(.5 , O -XVXpX:XxXnXXXpXxX).O O 5 ).qX+XE.C x >.7.V.Z.Z.~.oX8X Xz.%.CXCXCXCXCX",
"CXCXCXCXCXCX+.e.'.8XwX|.L.I.A.Z.5.<.8.q./.XX(.5 O -XvX:X*XxXzX*X9XVX-XO 5 `.qX+XT.8.:.1.5.S.P.L.$XeXrX.Xw.*.) CXCXCXCXCX",
"CXCXCXCXCXCX) #.q.!.6X6XJ.N.N.V.K.H.6.>.q.E.}. XG ;XmX X@XaX9XoX:XvX;XH 5XwXXXT.4.N.Z.H.H.e.6.^.6XrXXXc.,.+.CXCXCXCXCXCX",
"CXCXCXCXCXCXI ..,.0.~..X~.L.&X&X&XI.K.5.E.{.E.@X@X9XnX9X[.4X.X}.1XmXuX0XsX4X{.~.A.I.U.&X&X&XI.C.}./.B.8.#. .CXCXCXCXCXCX",
"CXCXCXCXCXCX/ X.` 4.w.C.L.U.U.U.P.P.A.f.v.#X!./.5XsXnXgX].v.e.'.aXnXjXdX4X X0X^.f.A.K.I.I.U.U.A.C.w.7.1.X.( CXCXCXCXCXCX",
"CXCXCXCXCXCX' =.O.3.7.S.P.P.A.S.6.5.5.1.8.!..XE.|.8XcXnX1Xw.9.].hXnXfX8X!.oX$X8.<.1.5.f.S.A.A.A.Z.6.1.[ o.[ CXCXCXCXCXCX",
"CXCXCXCXCXe ! ] -._ <.1.5.5.1.<.2.2.2.2.{ B.+XW.~.+XsXnXiXn.{ :XMXMXaX[.'.XXB.,.] 2.2.' <.5.5.5.5.<./ %.#.[ CXCXCXCXCXCX",
"CXCXCXCXCXe ! ] o.&._ ' <.3.2.r.r.r.2.] ^ q./.XXE.+XiXmX2XA ! _.vXcX4XE..X~.q.{ 2.r.r.l.r.] ] <.] ] X.%.] ! CXCXCXCXCXCX",
"CXCXCXCXCXCXY ! [ +.*.r.l.l.r.' / U I L x Q.{.@XT.}.eXmX-Xy ! v lXhXXXT.oX'.Q.x L I ~ ' 2.r.r.l.l.t.-.o./ I CXCXCXCXCXCX",
"CXCXCXCXCXCXCXL E W -.#.] ! U d w 0 * $ ; Y. XY.S |.rXxX_.h [ v uXwX[.q.R. XQ.; $ $ 0 i d U [ 2.] -.X.U I CXCXCXCXCXCXCX",
"CXCXCXCXCXCXCXCXs P o.u./ L e * $ = O > 3 V V ; D /.0XgXb._ t.b uXqX/.D ; V N - > X . i i e I E #.&.! L CXCXCXCXCXCXCXCX",
"CXCXCXCXCXCXCXCXCXd L ` &.U t L i 9 . X O - ; # C E.*XeX(._ u.b 0X=XE.C - ; 2 O X X = a T y f X.*.U L CXCXCXCXCXCXCXCXCX",
"CXCXCXCXCXCXCXCXCXCXw p #.&.~ s q $ . X X @ X . n B.|.6XQ.o.y.^ 5XXXY.n + O X X O % = 9 a U ` &.U w CXCXCXCXCXCXCXCXCXCX",
"CXCXCXCXCXCXCXCXCXCXCXCXCX` &.U 9 & + + > > > O 4 Z E.XXv.%.i.] XX[.D : O > > O & $ & $ d o.$./ CXCXCXCXCXCXCXCXCXCXCXCX",
"CXCXCXCXCXCXCXCXCXCXCXCX<.Q _ O.o.f t % o O O X + n q.|.^.;.i.M.}.Y.l + O @ O @ p i j / O.o.W ' CXCXCXCXCXCXCXCXCXCXCXCX",
"CXCXCXCXCXCXCXCXCXCX:.N.J.6.x I @.$._ I r & X   O 1 C Y.M.s.h.d.v.C & @ @ o + 0 L E %.%.) j 8.H.H.7.CXCXCXCXCXCXCXCXCXCX",
"CXCXCXCXCXCXCXCXCXCX1.5.N.L.4.CX9 I )  .Q E d * & 1 : 8.t.h.j.y.3.j = @ & y I W  . .X.CXCXCXC.L.6.6.>.CXCXCXCXCXCXCXCXCX",
"CXCXCXCXCXCXCXCXCXCX>.Z.6.V.4.CX  . * g U Q O...! h Y #.g.D.G.k.u./ f I o.$...W U CXCXCXCXCX7.6.Z.7.CXCXCXCXCXCXCXCXCXCX",
"CXCXCXCXCXCXCXCXCXCXCX>.>.>.CXCXCX  @ @ & r U ) O.%.y.a.j.G.G.D.h.y.-.O.@.E L w CXCXCXCXCXCXCX>.>.x CXCXCXCXCXCXCXCXCXCX",
"CXCXCXCXCXCXCXCXCXCXCXCXCXCXCXCXCX    @ > X CXCXe h / ` p.h.D.a.u.) E e u q i w CXCXCXCXCXCXCXCXCXCXCXCXCXCXCXCXCXCXCXCX",
"CXCXCXCXCXCXCXCXCXCXCXCXCXCXCXCXCXCXCX  O CXCXCXCX@ @ * U u.s.X.CXs L a w L i CXCXCXCXCXCXCXCXCXCXCXCXCXCXCXCXCXCXCXCXCX",
"CXCXCXCXCXCXCXCXCXCXCXCXCXCXCXCXCXCXCXCXCXCXCXCXCXCXCXCXCXo.&.CXCXCXs L p p CXCXCXCXCXCXCXCXCXCXCXCXCXCXCXCXCXCXCXCXCXCX",
"CXCXCXCXCXCXCXCXCXCXCXCXCXCXCXCXCXCXCXCXCXCXCXCXCXCXCXCXCXCXE CXCXCXCXCX0 CXCXCXCXCXCXCXCXCXCXCXCXCXCXCXCXCXCXCXCXCXCXCX",
"CXCXCXCXCXCXCXCXCXCXCXCXCXCXCXCXCXCXCXCXCXCXCXCXCXCXCXCXCXCXCXCXCXCXCXCXCXCXCXCXCXCXCXCXCXCXCXCXCXCXCXCXCXCXCXCXCXCXCXCX"
};
