/* XPM */
static char *result[] = {
/* columns rows colors chars-per-pixel */
"80 80 229 2 ",
"   c #010001",
".  c #05000B",
"X  c #08000F",
"o  c #0B0014",
"O  c #0E011A",
"+  c #12001E",
"@  c #150223",
"#  c #170428",
"$  c #1A042C",
"%  c #1A082F",
"&  c #1D0732",
"*  c #1E0834",
"=  c #200937",
"-  c #230C3C",
";  c #29093D",
":  c #230737",
">  c #260E40",
",  c #2B0D44",
"<  c #2F0F4A",
"1  c #330B44",
"2  c #320E4B",
"3  c #3A0B4C",
"4  c #3C0646",
"5  c #360F51",
"6  c #3C0E53",
"7  c #3B1055",
"8  c #3E115A",
"9  c #410E55",
"0  c #430E5B",
"q  c #4B0C55",
"w  c #43115C",
"e  c #481159",
"r  c #43074E",
"t  c #461162",
"y  c #4B1162",
"u  c #4E126A",
"i  c #53136D",
"p  c #581369",
"a  c #541372",
"s  c #5B1472",
"d  c #5B147B",
"f  c #440F60",
"g  c #63147D",
"h  c #651676",
"j  c #63116F",
"k  c #531A9E",
"l  c #58168A",
"z  c #641683",
"x  c #691684",
"c  c #6A178C",
"v  c #6F188C",
"b  c #6A1788",
"n  c #741884",
"m  c #7A1982",
"M  c #72188D",
"N  c #7C198B",
"B  c #761589",
"V  c #6F1894",
"C  c #6F1493",
"Z  c #731994",
"A  c #7B1A95",
"S  c #75199C",
"D  c #7A1998",
"F  c #5519AB",
"G  c #561AA5",
"H  c #581AB9",
"J  c #4F18A5",
"K  c #7D1BA5",
"L  c #7F1BA9",
"P  c #761AA6",
"I  c #651BBE",
"U  c #5D1BC4",
"Y  c #5C1ACD",
"T  c #5418CA",
"R  c #5C1ADB",
"E  c #5A1AD7",
"W  c #631BC4",
"Q  c #641CCA",
"!  c #6B1CCC",
"~  c #6C1CC2",
"^  c #641CD4",
"/  c #6C1DD4",
"(  c #641CDC",
")  c #6C1DDD",
"_  c #741ED3",
"`  c #7D1ED4",
"'  c #731DDB",
"]  c #7D1FDA",
"[  c #721ECC",
"{  c #7320DB",
"}  c #5A1AE4",
"|  c #5C1AEB",
" . c #5D1AF4",
".. c #5E1AF9",
"X. c #641BE4",
"o. c #6B1DE4",
"O. c #641BEB",
"+. c #6C1DEB",
"@. c #741EE4",
"#. c #7C1FE3",
"$. c #721EEC",
"%. c #7A1FEC",
"&. c #641BF4",
"*. c #6B1DF4",
"=. c #631BFC",
"-. c #6B1CFD",
";. c #731DFC",
":. c #781EF8",
">. c #7820E8",
",. c #7920F6",
"<. c #831B95",
"1. c #821B9E",
"2. c #8A1D9B",
"3. c #8B1D91",
"4. c #841BA5",
"5. c #8B1DA6",
"6. c #831CAC",
"7. c #8A1CAB",
"8. c #931DA5",
"9. c #931EAA",
"0. c #9C1DA6",
"q. c #8B1DB4",
"w. c #8D1EB9",
"e. c #831CB7",
"r. c #931EB5",
"t. c #931FBC",
"y. c #9A1FB7",
"u. c #A41FA8",
"i. c #A41FB8",
"p. c #9B20A7",
"a. c #9B20BD",
"s. c #9C21B6",
"d. c #8F20B2",
"f. c #A623AA",
"g. c #A522B9",
"h. c #B224B8",
"j. c #8A1EC4",
"k. c #921FC1",
"l. c #951FC4",
"z. c #801FD5",
"x. c #9C20C4",
"c. c #9D21CB",
"v. c #9622C9",
"b. c #8A21DD",
"n. c #8420DA",
"m. c #9E22D3",
"M. c #9822DA",
"N. c #A422C4",
"B. c #AC23C2",
"V. c #A322C9",
"C. c #AC24CA",
"Z. c #B323CA",
"A. c #B926C6",
"S. c #A423D4",
"D. c #AC24D4",
"F. c #A423DA",
"G. c #AB24DD",
"H. c #B325D4",
"J. c #BB24D4",
"K. c #B525DB",
"L. c #BB28DB",
"P. c #821FE5",
"I. c #841FFD",
"U. c #871FF5",
"Y. c #8C21E5",
"T. c #8420ED",
"R. c #8B21EB",
"E. c #8520E6",
"W. c #9422E5",
"Q. c #9422EC",
"!. c #9B23EC",
"~. c #9D23E7",
"^. c #8420F3",
"/. c #8C22F3",
"(. c #8520FC",
"). c #8B21FE",
"_. c #9B23F2",
"`. c #9423FD",
"'. c #9B23FD",
"]. c #9423F4",
"[. c #A424E2",
"{. c #AC25E3",
"}. c #A324ED",
"|. c #AA25EB",
" X c #B426E3",
".X c #BA26E3",
"XX c #B326EC",
"oX c #BB27EB",
"OX c #BE28ED",
"+X c #BF28E1",
"@X c #A324F2",
"#X c #AC26F3",
"$X c #A425FD",
"%X c #AC25FC",
"&X c #AB29F6",
"*X c #B327F3",
"=X c #BA27F2",
"-X c #BC28F4",
";X c #B426FC",
":X c #BB27FD",
">X c #B529FC",
",X c #BC29FC",
"<X c #B329F5",
"1X c #CB2BD4",
"2X c #C729D9",
"3X c #D22BD9",
"4X c #C425C9",
"5X c #C329E3",
"6X c #CD2AE3",
"7X c #C229ED",
"8X c #CC2BEB",
"9X c #C427E7",
"0X c #D62AE7",
"qX c #C329F4",
"wX c #CB2BF4",
"eX c #C327FC",
"rX c #C32AFB",
"tX c #CC2BFB",
"yX c #D42CF3",
"uX c #DA2DF3",
"iX c #D32CFB",
"pX c #DB2DFC",
"aX c #DC32FA",
"sX c #E32FF2",
"dX c #E82EF8",
"fX c #E931FB",
"gX c #E532F6",
"hX c #E92FF0",
"jX c None",
/* pixels */
"jXjXjXjXjXjXjXjXjXjXjXjXjXjXjXjXjXjXjXjXjXjXjXjXjXjXjXjXjXjXjXjXjXjXjXjXjXjXjXjXjXjXjXjXjXjXjXjXjXjXjX| jXjXjXjXjXjXjXjXjXjXjXjXjXjXjXjXjXjXjXjXjXjXjXjXjXjXjXjX",
"jXjXjXjXjXjXjXjXjXjXjXjXjXjXjXjXjXjXjXjXjXjXjXjXjXjXjXjXjX .|  .=.=.=.-.jXjXjXjXjXjXjXjXjXjXjXjXjXjXjXjXjXR jXjXjXjXjXjXjXjXjXjXjXjXjXjXjXjXjXjXjXjXjXjXjXjXjXjX",
"jXjXjXjXjXjXjXjXjXjXjXjXjXjXjXjXjXjXjXjXjXjXjXjXjXjXjXjX-.;.*.&.`.;X%X%X:X;X;X:X`.).jXjXjXjXjXjXjXjXjXjXjXjXjXjXjXjXjXjXjXjXjXjXjXjXjXjXjXjXjXjXjXjXjXjXjXjXjXjX",
"jXjXjXjXjXjXjXjXjXjXjXjXjXjXjXjXjXjXjXjXjXjXjXjX( @.;.-.-.iXfXpXiXpXZ.7.x i d x. XoXiX$X'./.jXjXjXjXjXjXjXjXjXjXjXjXjXjXjXjXjXjXjXjXjXjXjXjXjXjXjXjXjXjXjXjXjXjX",
"jXjXjXjXjXjXjXjXjXjXjXjXjXjXjXjXjXjXjXjXY &.:.).;.jXjX;.-.jXjXjXjXjX$XtX3X1XJ.<.w p u.f.f.sXyX|.! jXjXjXjXjXjXjXjXjXjXjXjXjXjXjXjXjXjXjXjXjXjXjXjXjXjXjXjXjXjXjX",
"jXjXjXjXjXjXjXjXjXjXjXjXjXjXjXjXjXjXjX} (.;.jXjXjXjXjXjXjXjXjXjXjXjXjXjXI.I.%XiX-XiX3X3.- q s J.G.@XW.jXjXjXjXjXjXjXjXjXjXjXjXjXjXjXjXjXjXjXjXjXjXjXjXjXjXjXjXjX",
"jXjXjXjXjXjXjXjXjXjXjXjXjXjXjXjXjX;.jXjXjXjXjXjXjXjXjXjXjXjXjXjXjXjXI.:.(.).I.;.U ! $XpX3Xh 5 * 5 C XXP.jXjXjXjXjXjXjXjXjXjXjXjXjXjXjXjXjXjXjXjXjXjXjXjXjXjXjXjX",
"jXjXjXjXjXjXjXjXjXjXjXjXjXjXjXjXjXjXjXjXjXjXjXjXjXjXjXjX;.%X;X;X$X%XH.l.B.B.B.9X%X$X,X>X,XiXA.2.1 : g l.<X@XjXjXjXjXjXjXjXjXjXjXjXjXjXjXjXjXjXjXjXjXjXjXjXjXjXjX",
"jXjXjXjXjXjXjXjXjXjXjXjXjX| jXjXjXjXjXjXjXjXjXjXjX'.`.=X{. Xg s s s 6 - - - - e a s h K.6XgX,XgX6Xc 1 1 a  X#XT.jXjXjX=.jXjXjXjXjXjXjXjXjXjXjXjXjXjXjXjXjXjXjXjX",
"jXjXjXjXjXjXjXjXjXjXjXR jXjXjXjXjXjXjXjXjXjX%.eXeX5X5.x > , = & $ $ @ + + O + + @ % - - 2 8.h.gXfXpX1Xh = 0 7.qXT.*.jXjX=.&.jXjXjXjXjXjXjXjXjXjXjXjXjXjXjXjXjXjX",
"jXjXjXjXjXjXjXjXjXjXjXjXjXjXjXjXjXjXjXjX$X:XiXZ.0 3 = $ @ O O . X o @ @ @ # # O X O + O % - - e m D.aXhXp.9 - M -XT.wXfX%X=.O.jXjXjXjXjXjXjXjXjXjXjXjXjXjXjXjXjX",
"jXjXjXjXjXjXjXjXjXjXjXjXjXjXjXjXjXjXjX$XfXu.N 3 & @ + . o O O @ # * - 7 a s a i - * - * O o O # & , n hXfXL.9 = M qXT.rXpXrX;.E jXjXjXjXjXjXjXjXjXjXjXjXjXjXjXjX",
"jXjXjXjXjXjXjXjXjXjXjXjXjXjXjXjXjXjXtXfXf., & O o o o @ & & - < < s a.S.#X}.@X-XB.a.a.d.2 , * @ o O & p A.uXH.5 : A eXP.8XZ.;X;.^ jXjXjXjXjXjXjXjXjX} jXjXjXjXjX",
"jXjXjXjXjXjXjXjXjXjXjXjXjXjXjXjX$XpX3Xh = O X + @ # = - 8 c q.|.|.XXY.) H J J / ,.>.{ -X7XH.N N 5 % O O $ i C.D.5 : 1.#X~.8XZ.eX;.jXjXjXjXjXjXjXjXjXjX} jXjXjXjX",
"jXjXjXjXjXjXjXjXjXjXjXjXjXjXjX;XfXf.q $ o + @ * = 8 a S.[.}.Y.' X.( ! }.}.}.}.|.*X` Q o.>.Q.!.wXK.D.y ; # @ 1 4.t.4 y L.@X_.8XN.eXo.jXjXjXjXjXjXjXjXjX} jXjXjXjX",
"jXjXjXjXjXjXjXjXjXjXjXjXjXjX;XhXh - # + # $ , y 6.*X}.b.' R.W.-Xm.m.m.w.8 w 8 8 Z S.m.m.XXR.Y./ >.}.7Xg.m # @ # i D $ 0  XU.%X4.K.'.jXjXjXjXjXjXjXjXjX} jXjXjXjX",
"jXjXjXjXjXjXjXjXjXjXjXjXjX;XhXm ; @ @ & - u t..X~.' / ` #Xw.c z , - & $ # # # # # - - > d c G.XX-X{ W W.uXh ; + % - * * 1.-X^.5XC yX'.jXjXjXjXjXjXjXjXjXjXjXjXjX",
"jXjXjXjXjXjXjXjXjXjXjXjX;.uXN - @ # * , b 7X#X! Q @XqXl.6., = $ O o o o o o o o o o o O O & , 5 d.oX|._ ~.sXm - O # - # , .X/.>X7.8.eXjXX.jXjXjXjXjXjXjXjXjXjXjX",
"jXjXjXjXjXjXjXjXjXjXjXjXeXJ.; @ # - w D.=Xb._ W.|.x.i - = @ o o @ # = - - - - - > - * * + O o @ $ t 6.-X/._.8Xz - + + + % b #X^.qXp 8X`.jXjXjXjXjXjXjXjXjXjXjXjX",
"jXjXjXjXjXjXjXjXjXjXjXiX2X9 @ # , 7.K.#XQ ' -Xr.s & @ + o + & 5 w w d.D.S.S.S.m.m.S.S.D.D.u 6 * O + = D S.&XR.XXz - + O # 7 F.>.;Xy.8.;XjX+.jXjXjXjXjXjXjXjXjXjX",
"jXjXjXjXjXjXjXjXjXjXR.yX9 # # > 4.wX#.^ *XK.5.- & @ o O & 2 4.oX#X*X#X$.+.) ( +.( W Q Q }.|.7X7.7 % @ & 5 S.@XR.oX2 - O O & K #X:.H.u 0XI.jXY jXjXjXjXjX| jXjXjX",
"jXjXjXjXjXjXjXjXjX`.iX5.= # , 4.*X[ n.=XH.9 & = $ @ = w A .X*XT.>.,.>.-XXX|.|.XX!.! / ~ J F ] |.H.a > @ @ 6 D.@X<Xw., $ X @ 2 |.*.qXg B.).jX;.jXjXjXjXjX| jXjXjX",
"jXjXjXjXjXjXjXjXjXiXu.: @ > 4.,XU.|.OXx 1 1., * & 2 6.{.#X#X@X#X Xa.x.5.2 < < 7 w.w.a.&X!.b.H G ~.*X4.> @ @ 5 S.#X=Xa * o O : v.Q.'.M h.:XjXjXjXjX=.jXjXjXjXjXjX",
"jXjXjXjXjXjXjXjX$XsXe # : K -XP.-Xy.y s 7.v $ 6 A 7X,X#X X Xg a w > - = $ @ # # & - - u d {.|.] F ~ <XK > @ @ 8 D.rXD - + o & c P._.M p uXtX;.( jX=.jXjXjXjXjXjX",
"jXjXjXjXjXjXjX^.iX8.$ : 4.<X#.=Xr.; z 9XA - 8.K.&X@X*X6.8 > > & $ $ @ + o X X X O @ + @ $ : S S.}.J ~ XX7 - o & a rX X> # X & c W.Q.H.7 1XH.+.+.jXjXjXjXjXjXjXjX",
"jXjXjXjXjXjXjXrX4X1 = 4.*X#.<Xt.: z 9XA & 5.wX^.@X=Xz - * $ @ o X     . X X .       . O + @ * 5 S.|.H #XD.7 # O - x.OXa * o O a XXo.oX7 g.J.R.( jXjXjXjXjXjXjXjX",
"jXjXjXjXjXjX) rXs & S *X' -Xd., g oXC : 8.tX/.rXs.a - * O o . . + + + # @ # + O           o + @ 7 D.#XI }.z - o $ a -XK * + O * m.( XX2 g a.;X| -.jXjXjXjXjXjXjX",
"jXjXjXjXjXjX`.6X9 5 F.] n..X; g wXl.- 4.-X/.rXs.< - # o . o + @ & & - - > - * & $ + o       o O # 7 D.&XT.{., o @ 2 =XS.2 @ o > m.( XX2 M 9.,X=.;.jXjXjXjXjXjXjX",
"jXjXjXjXjXjXgXf.& l.}.) XXz : x.5X0 x qXU.qXa.1 % @ . o @ $ - > i v c c c c 2 > - % @ O       X + # 9 .X>.<X4.& + - G.rX8 % o - D.o.[.< M r.eX).wXjX=.jXjXjXjXjX",
"jXjXjXjXjX>.aX1 d =X/ |.t.& s.yXB ; D.Q.W.y., $ + o O $ = > V S..XtXc.4.q.-XS.S.t > % + o       X + = 4.-XR.7.> O * c -X8 * . * D.+.XX2 M 5.Z.$XfX,.-.jXjXjXjXjX",
"jXjXjXjXjX>X2X2 w.Y.W.D.4 y 6XL.; g =X$.OXd & + . o $ > y 6.qXS.t e , : - 8 z F.F.t = @ + .       + $ , x.Q.<X8 # # c ,X8 - . - D.o.XX2 s M 8.$XfX$X;.jXjXjXjXjX",
"jXjXjXjXU :XN t XX' -Xz & 1.pXn ; V.Q.#XV.; @ O o $ < a  X-XV 8 - $ @ O @ # - , a.{.t = @ o       . @ - w.&X|.8 # o z >X8 - o - D.( |.2 & > 7.$X1XqX(...jXjXjXjX",
"jXjXjXjX#.iX3.t.Q.P.m.& 3 qXD.1 s -XQ.D.6 # O . @ = a rXqXz - = $ + .   o + @ - z =Xx.- % + .       O = 5 |.|.8 # o > m.w % o - D.+.XX2 $ 7 H.`.5XJ.%X .jXjXjXjX",
"jXjXjXjX].3Xs *X/ }.i $ y.iX7.* K._.,XD = @ o + * y oXrXz - = + + .     . + @ = ,  X-Xi - @ .   . o o $ 2 |.*Xw # o - c.8 O o - G.>.XX2 $ w ;XU oX0.,X=.=.jXjXjX",
"jXjXjXjX;X1Xv.!._ *X3 ; l.7Xs B qX!.K., $ + o @ 5 .X#XG.7 * @ +         O @ = > M *X!.v., @ o   . +   @ 2 wXc.2 # o - c.8 + @ d 8X+.*X2 % w <XT }.x 9X;.=.jXjXjX",
"jXjXjX*.iXB XXW W.4.& a =X.X1 C.].@Xg - @ O O $ A *XQ.a.- @ + .       . + # > 2 c.R.*Xx.- @ +   . +   @ 2 wX4.> # o t G.8 + % c _./ XX< $ e <XH W.a H.:.*.jXjXjX",
"jXjXjX;.:Xq.M.H |.0 $ z @X X9 oX>.qXp & + X @ - S.] |.s $ @ O         O + : V 9X-X/.C.5 - @ .   O +   @ 2 qX4.> # O c qX7 o * D W.Y.6.= $ s >XH !.a J./.&.jXjXjX",
"jXjX&.$X4Xr.` ` {.: & {.#Xr.0 }.#.x.> $ o . # , m.( |.< @ + X       O @ 6 k.qXtXx.x.Z - # +   o + $   @ 2 oXg - . % c S., @ 2 XX` Y.c * $ D.Q.H Q.a 0.tX;.jXjXjX",
"jXjXO.'.r.XX' !.z $ t |.!.i 8 #X%.x.- @ .   * z <X_.{., @ +       . O $ a rXS.a - : # @ O   . + $ - . + 2 H., * . * M 5.o # 2 XXH Y.c & - S.>.F }.a 0 ,XjXjXjXjX",
"jXjXX.'.9X|.O.~.a @ K Q.!.a r.|.@Xd.- +   o * c Q.Q.v * + +       . @ $ a rXa * + o o .   . + $ d c . + < C.> O . - x.s o - 4.-X^ -Xb $ 1 L.).~ }.i q tXjXjXjXjX",
"jXjX-.eXqX%.( _.i @ K #.!.a m.@.|.7 = O   + % c Q._.v & + o       . + $ a tXa $ +       . + $ , L c X @ > 7 $ o . ; r.# $ 7 H.] ^ D., & N iXR.(.|.w <.rX{ jXjXjX",
"jXE O.eXjXjXX.@Xi @ K #.W.a S.) |.< $ X   + & M _._.v & + o       . + $ i wXb & + + + + # = < w.F.> O @ > > $ . + - - O % b <XH |.C.& * 2.>XaX'.N.= J.).^ jXjXjX",
"jXX.$.:XjXE @.K.w @ K n.Q.i m.( |.2 @ X   + & i oX!.Z * @ +         + @ - Z XXz - & & & , 2 q.rXa *   & - & O o & - O @ , .Xb.[ =Xw % < yXpX3X@Xg.- J.].jXjXjXjX",
"jXjX&.:XjXR @.l.= @ K >.}.d m.( |.< @ X   + & - D.Q.XX< @ +         o @ # - V G.S.c c c S.=X,Xq.< # X & # O   + % . + ; y.-XU W.d.- @ s gX8XC.!.N.$ J./.jXjXjXjX",
"jXjX&.;XjXjX#.l.- $ L T.@Xa S.( |.2 @ o   + + - D.) |.8 @ @ o         o + # ; 2 P oXqXrXrXG.P , %   o + o     .   X # i qX~ W oXa + & h.rXg.wXR.a.$ 1X,.jXjXjXjX",
"jXjX&.;XjXjX@.w.v $ K >.!.a D.) |.< @ o     @ - m.^ ~.w.- @ + X         o + @ & - 7 w 0 8 5 * @ o   + O         X # - H.|.H <XN.& o 7 2XgX2.-X-X4.q 0X/.jXjXjXjX",
"jXjX&.%XjXjX/ j.S.= K >.Q.a c.!.|.t # +     + - D._ / *Xu & @ + o         . + + @ # # # # @ +     . o         X # - Z wX) *XN.2 @ # N fX2XB.#XXX1 N rX/ jXjXjXjX",
"jX-.| R.jXjX/ j.S.= K E.Q.i t }.Q.w.- @     o * 5.qX_ !.r., $ @ + o .         o o + + @ o         .       . o # > A qX` n.OX5 & o n sXfXh D.R.oX3 A.,XjXjXjXjXjX",
"jX&.jX} jXjX' w.G.t C *X!.C 8 }.) t.- @       @ , r.Q.! =XD > $ + @ + .             .                   . + $ - Z -X` ] wXZ = + ; g.,XA.v qX#XD 3 uXP.jXjXjXjXjX",
"jXjXjXT jXjX/ j.=XL & {.#.{.8 *XE.w.> $ o     o * s oXW.E..Xy > = @ + + o                           . O + - > A wX` _ qXA - # O s.pXaXn D._..Xt 1 uXjXjXjXjXjXjX",
"jXjXjXE jXjX/ j.*XK * [.( |.a 6.Y.v.> & o       + = h <XQ @X.Xy > - * # + + O O X         . . X o + + $ = > Z qX` G }.d.; # o y 8XtX<.2 XXQ.D.= m aXjXjXjXjXjXjX",
"jXjXjXjXjXjX/ k.L K : [.W Y.K P <XXXu & + .     o @ 2 V.=X!.@XXXd.i > > = @ @ @ + + O + + + + @ @ @ - - t K.wX` G }.K.y # o ; +X,X3Xe t.qX#Xz $ h.>XY T jXjXjXjX",
"jXjXjXjXjXjXjX@XP m.5 q.!.] S.7 [.!.a - @ o       + & , s oXR.W }.oXw.8 < > - * & # @ + @ # & * - > 2 6.{.!.U W |.5Xe # + - <.yXgXp.s ,X].H., r 0X'.T jXjXjXjXjX",
"jXjXjXjXjXjXjXW.P ;X8 a }.I @Xz S.,XZ - @ +         + @ - i  XW.[ ! }.|. XM v y > - - - - - - i c Z XX|.>.W Y.-XL.y # + - <.aX,Xh.u  X@XtXA $ <.rXjXU jXjXjXjXjX",
"jXjXjXjXjXjXjXW.L ,Xq.7 S./ E.S.a *X{.5 = @ .         o @ = a q.qX] H H b.Q.&X5XS.D.S.m.m.m.c.|.W.Y.` ^ W.qXV.M - + + 7 Z.aX,X8Xs d.@X@X5X= , 6X$XR o.jXjXjXjXjX",
"jXjXjXjXjXjXjXY.{.D.m.- v.b.+..Xh oX*XP > @ O           o @ $ , 8.L.#XW.I k F / ! ^ W W U W W ( H _ Y.-XD.p 1 @ O * u p.tX>X8Xs <.wX>X8Xp @ 8.aX) ( jXjXjXjXjXjX",
"jXjXjXjXjXjXjXjX6XD.*Xl a |.U %X1.t.W.q., * + o           o @ @ * 7 v r.|.W._ k G k k Q ! _ ] #X{.oXZ z = # + o - s +X,XaXp.s A wX>X8Xs # 4 0X].o.jXjXjXjXjXjXjX",
"jXjXjXjXjXjXjXjXwXy.eXj.5 XX_ #.wXS *X*XL , $ +             o + @ @ * , t v.wX<X<X<X#XoXw.k.a.V 2 , & # o + : b V.-XrXwXd.> A yX>X6Xs % + p.tX^ +.jXjXjXjXjXjXjX",
"jXjXjXjXjXjXjXjX[.8Xw.:XL P !.Y ;Xy.|.>.F.8 * @ o               o + + @ = - s j j s s u > - = # # O o O % 7 D.*X@X<XH.s , A wX>X8Xs - + r 5X^.X.jXjXjXjXjXjXjXjX",
"jXjXjXjXjXjXjXjXjXeXV.*X#Xd {./ %.9Xx.W._.V > * @ o                 X o + # $ % & $ $ $ # O + o o O & , 7.L.#X<XqX4.8 y H.yX>X8Xs - @ 3 1X,X,.Y jXjXjXjXjXjXjXjX",
"jXjXjXjXjXjXjXjXjXI.9XS.:XP q.*X/ $Xx.XX!.*Xz - @ @ o         o o           o O O o O O o X # - > 2 4.d.iXqXD.s.7 > y 5X-XaXH.p = + * h.>X,.Y jXjXjXjXjXjXjXjXjX",
"jXjXjXjXjXjXjXjXjXjX%XOX#X#XS t.R.>.oXM |.E.7Xu = @ + o         o o             .     O * - u w. XoXwX9XZ d - $ , s.yX,XiX5.- # + = h gX).{ jXjXjXjXjXjXjXjXjXjX",
"jXjXjXjXjXjXjXjXjXjX*.$X%XU.S.M XXX.>X2XL.@X@Xy., - @ + o         o + o o       o O + @ $ * 4.l.t.a.3 ; * % 1 b A.aXyXg.2.- O O - h aX&X>.jXjXjXjXjXjXjXjXjXjXjX",
"jXjXjXjXjXjXjXjXjXjXjX;.W._ %Xm.S.@X,.rX2X8X] <Xs., - @ + o         o # $ # - & O o . . O O O + # $ $ $ u 5.7XaXaX5Xx - * o # - h sX&X^ jXjXjXjXjXjXjXjXjXjXjXjX",
"jXjXjXjXjXjXjXjXjXjXjXjXX.jXjX@XD.F.$X;.$XaX8X` OXd., - # + o         o # * - 4.8 5 * * * * - 6 8 8 V S.XXrX-X2X2., $ + O @ 7 A.gX&X^ jXjXjXjXjXjXjXjXjXjXjXjXjX",
"jXjXjXjXjXjXjXjXjXjXjXjX .| jXjX_.D.F._.*.{ =XwX' ,Xw., - * @ + .         O # 2 c v.z 4.K K q.-XqX,X,X{.D.s w 3 + O o + = 3.1XtXR.^ jXjXjXjXjXjXjXjXjXjXjXjXjXjX",
"jXjXjXjXjXjXjXjXjXjXjXjXjX..jXjXjX~.F.M.@X&.R c.yXn.=Xw.a 7 - $ + o       . X + $ = u c c c c c c c c 8 - $ # O X + # p f.gX&X>.jXjXjXjXjXjXjXjXjXjXjXjXjXjXjXjX",
"jXjXjXjXjXjXjXjXjXjXjXjXjXjXjXjXjXjX~.G.M._.).^ _ [.>.@X}.S.4.- $ + @ + o       . o + # & & & & & & % # o o o O : r h.0XtXQ.R jXjXjXjXjXjXjXjXjXjXjXjXjXjXjXjXjX",
"jXjXjXjXjXjXjXjXjXjXjXjXjXjXjXjXjXjXjX@XF.6.*X`.,.jXjXjXjX>.*XK > - # @ % @ @ + o . X X X .   . X X X X @ # , b L.sXhXdX}.=X-.=.X.jXjXjXjXjXjXjXjXjXjXjXjXjXjXjX",
"jXjXjXjXjXjXjXjXjXjXjXjXjXjXjXjXjXjXjXjXR.*Xl.l.:X:.jXjXjXjX^.-XH.B.e 3 # $ & 3 9 9 3 # @ + O O # = 6 r w c.2XyXB.g.Z.uX%X,.| jXjXjXjXjXjXjXjXjXjXjXjXjXjXjXjXjX",
"jXjXjXjXjXjXjXjXjXjXjXjXjXjXjXjXjXjXjXjXjX#.#XXXoXrXjXjXjXjXjX,.,.rXrX6X5.g , d.K.wXrXw.5.8.5.8.7.p.yXpX XJ.J.i.8XtXtX(.jXjXjXjXjXjXjXjXjXjXjXjXjXjXjXjXjXjXjXjX",
"jXjXjXjXjXjXjXjXjXjXjXjXjXjXjXjXjXjXjXjXjXjX( %.Y.tXrXjXjXjXjXjXjXjXjX`._.7X X4.c K Z 9.sXuXyXuXyXsX3X0.Z.6X0XtX).jXjXjXjXjXjXjXjXjXjXjXjXjXjXjXjXjXjXjXjXjXjXjX",
"jXjXjXjXjXjXjXjXjXjXjXjXjXjXjXjXjXjXjXjXjXjXjXjXR X.!.qXsXjXjXjXjXjXjXjXjX+.T.$XQ.}.G.k.v.x.x.x.B.A.2XtXrX).*.jXjXjXjXjXjXjXjXjXjXjXjXjXjXjXjXjXjXjXjXjXjXjXjXjX",
"jXjXjXjXjXjXjXjXjXjXjXjXjXjXjXjXjXjXjXjXjXjXjXjXjXjXE ' M.#X) jXjXjXjXjXjXjXjXjX&.R ) / / _ ' (.).`.I.jXjXjXjXjXjXjXjXjXjXjXjXjXjXjXjXjXjXjXjXjXjXjXjXjXjXjXjXjX",
"jXjXjXjXjXjXjXjXjXjXjXjXjXjXjXjXjXjXjXjXjXjXjXjXjXjXjXjXjXjX*.,.+.jXjXjXjXjXjXjXjXjXjXjXjX=.=.R O.} O.T jXjXjXjXjXjXjXjXjXjXjXjXjXjXjXjXjXjXjXjXjXjXjXjXjXjXjXjX",
"jXjXjXjXjXjXjXjXjXjXjXjXjXjXjXjXjXjXjXjXjXjXjXjXjXjXjXjXjXjXjXjX,./.{ >.jXjXjXjXjXjXjXjXjXjXjXjXjXjXjXjXjXjXjXjXjXjXjXjXjXjXjXjXjXjXjXjXjXjXjXjXjXjXjXjXjXjXjXjX",
"jXjXjXjXjXjXjXjXjXjXjXjXjXjXjXjXjXjXjXjXjXjXjXjXjXjXjXjXjXjXjXjXjXjXjXjX-.X.Y jXjXjXjXjXjXjXjXjXjXjXjXjXjXjXjXjXjXjXjXjXjXjXjXjXjXjXjXjXjXjXjXjXjXjXjXjXjXjXjXjX",
"jXjXjXjXjXjXjXjXjXjXjXjXjXjXjXjXjXjXjXjXjXjXjXjXjXjXjXjXjXjXjXjXjXjXjXjXjXjXjXjXjXjXjXjXjXjXjXjXjXjXjXjXjXjXjXjXjXjXjXjXjXjXjXjXjXjXjXjXjXjXjXjXjXjXjXjXjXjXjXjX",
"jXjXjXjXjXjXjXjXjXjXjXjXjXjXjXjXjXjXjXjXjXjXjXjXjXjXjXjXjXjXjXjXjXjXjXjXjXjXjXjXjXjXjXjXjXjXjXjXjXjXjXjXjXjXjXjXjXjXjXjXjXjXjXjXjXjXjXjXjXjXjXjXjXjXjXjXjXjXjXjX",
"jXjXjXjXjXjXjXjXjXjXjXjXjXjXjXjXjXjXjXjXjXjXjXjXjXjXjXjXjXjXjXjXjXjXjXjXjXjXjXjXjXjXjXjXjXjXjXjXjXjXjXjXjXjXjXjXjXjXjXjXjXjXjXjXjXjXjXjXjXjXjXjXjXjXjXjXjXjXjXjX"
};
