/* XPM */
static char *result[] = {
/* columns rows colors chars-per-pixel */
"80 80 256 2 ",
"   c #0C191E",
".  c #0B161A",
"X  c #131C1E",
"o  c #061E26",
"O  c #0B1D23",
"+  c #061F28",
"@  c #121E21",
"#  c #0B2126",
"$  c #07232C",
"%  c #0B242B",
"&  c #0E292E",
"*  c #072027",
"=  c #122A2D",
"-  c #132427",
";  c #072632",
":  c #092631",
">  c #0C2B33",
",  c #0B2E3A",
"<  c #072A38",
"1  c #112D33",
"2  c #122F39",
"3  c #0D333C",
"4  c #0D3239",
"5  c #133135",
"6  c #12343B",
"7  c #1B3B3B",
"8  c #17373B",
"9  c #19312E",
"0  c #233C37",
"q  c #26443D",
"w  c #3F5A3F",
"e  c #1E423E",
"r  c #0C3542",
"t  c #0D3A44",
"y  c #0C3D4B",
"u  c #073345",
"i  c #123B44",
"p  c #113E4A",
"a  c #163942",
"s  c #0A3D55",
"d  c #0F3548",
"f  c #203F46",
"g  c #0D424D",
"h  c #13434C",
"j  c #1B454A",
"k  c #184649",
"l  c #0D4453",
"z  c #0D4B5B",
"x  c #0C4658",
"c  c #124652",
"v  c #134954",
"b  c #134D5B",
"n  c #1B4B54",
"m  c #13515D",
"M  c #1D545C",
"N  c #1B5355",
"B  c #0E535B",
"V  c #244A48",
"C  c #29524B",
"Z  c #36584B",
"A  c #275758",
"S  c #355B58",
"D  c #254D55",
"F  c #2A615B",
"G  c #366659",
"H  c #3B6751",
"J  c #0C4C62",
"K  c #0D4A67",
"L  c #0D5264",
"P  c #0D596C",
"I  c #0D546C",
"U  c #135463",
"Y  c #145966",
"T  c #135B6B",
"R  c #185866",
"E  c #0E5C73",
"W  c #0E5679",
"Q  c #115D71",
"!  c #185A77",
"~  c #124C67",
"^  c #285C62",
"/  c #1B656B",
"(  c #0E6278",
")  c #146474",
"_  c #1B6473",
"`  c #136A7C",
"'  c #176879",
"]  c #18757A",
"[  c #276668",
"{  c #376A66",
"}  c #397569",
"|  c #256B77",
" . c #297677",
".. c #347776",
"X. c #326E72",
"o. c #435B55",
"O. c #446956",
"+. c #46755B",
"@. c #4D6E53",
"#. c #477A65",
"$. c #487877",
"%. c #53726B",
"&. c #63786C",
"*. c #445D3D",
"=. c #3B8678",
"-. c #3E8C74",
";. c #1A8C78",
":. c #4C835A",
">. c #4A876A",
",. c #538768",
"<. c #488A75",
"1. c #4B9479",
"2. c #579776",
"3. c #578E71",
"4. c #659877",
"5. c #6C9077",
"6. c #55A679",
"7. c #63A276",
"8. c #89AA77",
"9. c #AAC974",
"0. c #125D84",
"q. c #146A86",
"w. c #187789",
"e. c #167996",
"r. c #0F6B8D",
"t. c #267986",
"y. c #2C768B",
"u. c #147AA6",
"i. c #2D79A8",
"p. c #4A7F96",
"a. c #188699",
"s. c #1A8B8B",
"d. c #298689",
"f. c #398989",
"g. c #258697",
"h. c #379999",
"j. c #329391",
"k. c #3DA99A",
"l. c #1688A5",
"z. c #1995AB",
"x. c #2697A7",
"c. c #2F92AD",
"v. c #1CA4B8",
"b. c #1CA8A9",
"n. c #29ACB8",
"m. c #31ADAC",
"M. c #1DA39B",
"N. c #498589",
"B. c #568987",
"V. c #479688",
"C. c #589688",
"Z. c #479795",
"A. c #579A97",
"S. c #478B92",
"D. c #689586",
"F. c #6C908F",
"G. c #59A588",
"H. c #48A598",
"J. c #56A896",
"K. c #55B391",
"L. c #66A689",
"P. c #75A986",
"I. c #66A797",
"U. c #6CB69A",
"Y. c #73B592",
"T. c #599AA3",
"R. c #4A93A5",
"E. c #6E9AA7",
"W. c #4AA7A5",
"Q. c #55A9A6",
"!. c #4BB4A8",
"~. c #58B6AA",
"^. c #58B9B7",
"/. c #4FB1B7",
"(. c #66B7A6",
"). c #6FB0AF",
"_. c #77C598",
"`. c #57C8BB",
"'. c #4FC9B3",
"]. c #7BDAAA",
"[. c #66C7B6",
"{. c #76D7B9",
"}. c #73CCB0",
"|. c #59C49B",
" X c #1CADCA",
".X c #2FB0CA",
"XX c #29A4D4",
"oX c #4BB7C9",
"OX c #79B7C8",
"+X c #2ECCD5",
"@X c #2ED0EC",
"#X c #2DE8EF",
"$X c #2AE3DF",
"%X c #51CED2",
"&X c #69C6C8",
"*X c #78D5C9",
"=X c #6DD5D1",
"-X c #73E6D2",
";X c #4FDDE3",
":X c #4FEDEE",
">X c #77E6E6",
",X c #6FF1E9",
"<X c #5EDDDF",
"1X c #1FCCBC",
"2X c #86A698",
"3X c #90AE8F",
"4X c #A1B490",
"5X c #8CB2AC",
"6X c #A4BBAF",
"7X c #829692",
"8X c #91CA9C",
"9X c #A9C998",
"0X c #89C5B6",
"qX c #87D6B6",
"wX c #91D0AF",
"eX c #BAD9BA",
"rX c #AACCB1",
"tX c #96E6B1",
"yX c #A9E8B3",
"uX c #D1EAB8",
"iX c #C4CFBF",
"pX c #91BAC9",
"aX c #9ADAD5",
"sX c #8CCFCC",
"dX c #B0D4CB",
"fX c #99E6D6",
"gX c #89E8D3",
"hX c #B8EAC9",
"jX c #B9E6D4",
"kX c #ABEBCF",
"lX c #A5DBE3",
"zX c #99E7E8",
"xX c #89F7F5",
"cX c #8DF3ED",
"vX c #A8E5E6",
"bX c #BAEBE9",
"nX c #BAF6E9",
"mX c #AAFBF8",
"MX c #B9FBF8",
"NX c #ACF0EC",
"BX c #9FD2E1",
"VX c #CADDD9",
"CX c #CBEDD0",
"ZX c #C6FDFA",
"AX c #DCFFFE",
"SX c #D5FCF9",
"DX c #CDF1E8",
"FX c #E4FEFD",
"GX c #ECFFFE",
"HX c #E6FAF7",
"JX c #F4FFFE",
"KX c #FDFFFF",
"LX c #F4FCF7",
"PX c #E5F4EA",
"IX c #E6F8D2",
"UX c None",
/* pixels */
"UXUXUXUXUXUXUXUXUXUXUXUXUXUXUXUXUXUXUXUXUXUXUXUXUXUXUXUXUXUXUXUXUXUXUXUXUXUXUXUXUXUXUXUXUXUXUXUXUXUXUXUXUXUXUXUXUXUXUXUXUXUXUXUXUXUXUXUXUXUXUXUXUXUXUXUXUXUXUXUX",
"UXUXUXUXUXUXUXUXUXUXUXUXUXUXUXUXUXUXUXUXUXUXUXUXUXUXUXUXUXUXUXUXUXUXUXUXUXUXUXUXUXUX1 UXUXUXUXUXUXUXUXUXUXUXUXUXUXUXUXUXUXUXUXUXUXUXUXUXUXUXUXUXUXUXUXUXUXUXUXUX",
"UXUXUXUXUXUXUXUXUXUXUXUXUXUXUXUXUXUXUXUXUXUXUXUXUXUXUXUXUXUXUXUXUXUXUXUXUXUXUXUXUXUXUXUXUXUXUXUXUXUXUXUXUXUXUXUXUXUXUXUXUXUXUXUXUXUXUXUXUXUXUXUXUXUXUXUXUXUXUXUX",
"UXUXUXUXUXUXUXUXUXUXUXUXUXUXUXUXUXUXUXUXUXUXUXUXUXUXUXUXUXUXUXUXUXUXUXUXUXUXo UX< > $ $ UXUXUXUX; : UXUXUXUXUXUXUXUXUXUXUXUXUXUXUXUXUXUXUXUXUXUXUXUXUXUXUXUXUXUX",
"UXUXUXUXUXUXUXUXUXUXUXUXUXUXUXUXUXUXUXUXUXUXUXUXUXUXUXUXUXUXUXUX; : > 1 > UXUXUXUXUXUXUXUXUXUXUXUXUXUXUXUXUXUXUXUXUXUXUXUXUXUXUXUXUXUXUXUXUXUXUXUXUXUXUXUXUXUXUX",
"UXUXUXUXUXUXUXUXUXUXUXUXUXUXUXUXUXUXUXUXUXUXUXUXUXUXUX> : & UXi > h 3 a UXUXUXUXUXUXUXUXUXUXUXUXUXUXUXUXUXUXUXUXUXUXUX0.UXUXUXUXUXUXUXUXUXUXUXUXUXUXUXUXUXUXUXUX",
"UXUXUXUXUXUXUXUXUXUXUXUXUXUXUXUXUXUXUXUXUXUXUXUXUXUXUX% 5 f 8 i UXUXUXUXUXX UXUXUXUXUXUXUXUXUXUXUXUXUXUXUXUXUXUXUXUXUXq.u.UXUXUXUXUXUXUXUXUXUXUXUXUXUXUXUXUXUXUX",
"UXUXUXUXUXUXUXUXUXUXUXUXUXUXUXUXUXUXUXUXUXUXUXUX: 3 l & { p.- UXUXUXUX- UXUXUXUXUXUXUXUXUXUXUXUXUXUXUXUXUXUXUXUXUXUXs 0.UXUXUXUXUXUXUXUXUXUXUXUXUXUXUXUXUXUXUXUX",
"UXUXUXUXUXUXUXUXUXUXUXUXUXUXUXUXUXUXUXUXUXUX$ 4 h b UX1 UXUXUXUXUXUXUXUXUX: UXUXUXUXUXUXUX> b UXUXUXUX$ UXUXUXUXUXUXUXa UXUXUXUXUXUXUXUXUXUXUXUXUXUXUXUXUXUXUXUX",
"UXUXUXUXUXUXUXUXUXUXUXUX$ UXUXUXUXUXUXUXUXUXx r z 1 UXUXUXUXUXUXUXh q 6 1 5 n T y i 1 > 6 4 ! r > UXUX> : UXUXUXUXUXUX2 UXUXUXUXUXUXUXUXUXUXUXUXUXUXUXUXUXUXUXUX",
"UXUXUXUXUXUXUXUXUXUXUXUXUXUXUXUXUXUXUX3 4 n ( UXUXUXUXUXUXUXQ U i V 4.+.@.q q 6 > 5 O & ; K ;Xm > 6 t h & $ $ $ UX1 % : UXUXUXUXUXUXUXUXUXUXUXUXUXUXUXUXUXUXUXUX",
"UXUXUXUXUXUXUXUXUXUX; UXUXUXUXUXUXUXUXi $ UXUXUXUXUXUXUXi b ..G ,.q V Z Z V 9 & % r : b u. X@X X~ q.3 h > r UXUXUXUXUXUXUXUXUXUXUXUXUXUXUXUXUXUXUXUXUXUXUXUXUXUX",
"UXUXUXUXUXUXUXUXUXUXUXUXUXUXUXUXUXQ 4 r & 4 UXUXUXUXF >.Z H / 7 0 4 4 t 3 > r t r 3 6 x L v.$Xr.< y < , > L > 6 UXUXUXUXUXUXUXUXUXUXUXUXUXUXUXUXUXUXUXUXUXUXUXUX",
"UXUXUXUXUXUXUXUXUXUXUXUXUXUXUXUXl. Xm > & UXUXUXUXZ G G _.Z t & % * $ > y 3 g y y y z u x y $X3 r y > s $ > , i 3 ) h UXUXUX& UXUXUXUXUXUXUXUXUXUXUXUXUXUXUXUXUX",
"UXUXUXUXUXUXUXUXUXUXUXUXUXUXUXE l.+X' UXUXUXUXC O.$.j.A q & 4 t r > y h c m m g r g 3 r x 4 s.4 1 > O X o ; : ; y + h UXUXUXUX1 1 UXUXUXUXUXUXUXUXUXUXUXUXUXUXUX",
"UXUXUXUXUXUXUXUXUXUXUXUXUXUXv.@X#X+X! a UXUXUX+.X.M G y 4 l & i c N B i 3 x m m L z i > ] v m h & > 2 1 = X # * & r i c j 1 UXUXUXUX$ UXUXUXUXUXUXUXUXUXUXUXUXUX",
"UXUXUXUXUXUXUXUXUXUXUXt I l.:X#X#X@XXXf e.c.jXwX#.5 & z 3 > 4 p R k i A R R n T U [ c P d.c m M p i > 1 8 m - O @ % % > 6 c q.: UXUX$ UXUXUXUXUXUXUXUXUXUXUXUXUX",
"UXUXUXUXUXUXUXUXUXUXUXUXUXK a. XXX@X~ ! R.#.Y.S v 8 5 > > 6 _ R k c _ ..X.h.B.D.f.H.w.#.O.[ M ..~ M Z > % > 4 4 # O - $ : _ l.2 UXUXUXUXUXUXUXUXUXUXUXUXUXUXUXUX",
"UXUXUXUXUXUXUXUXUXUXUXUXUX* v u.! i.s f >.:.#.7 > $ , > m i [ [ / L.7.D.H.).7XP.}.$.<.+.B.(. .h.5.P.} Z - & h > #   X O + p ! p & UXUXUX$ UXUXUXUXUXUXUXUXUXUXUX",
"UXUXUXUXUXUXUXUXUXUXUX$ r r l > f 0.D S [ { #.8 4 * t Y ] n [ ..g.|.[.jXkXPXIXfXqXVX*XhXyX3.~.8.5.D.!.J.l.G > d 1 $ : @ - @ O & - + UXUXUXUXUXUXUXUXUXUXUXUXUXUX",
"UXUXUXUXUXUXUXUXUXUXUX, P 4   . 8 ~ 3.A.h.2.7 % $ $ 1 h [ V.!.rXQ.wXCX&XVXVX}.!.x.).aXIX8XVXE.1.`.,.5.I.R O.O.2 > r & & O - . + % & UXUXUXUX: UXUXUXUXUXUXUXUXUX",
"UXUXUXUXUXUXUXUXUXUX$ h t % . . M /.%.G +.Z 3 4 4 T 6 M 1.'.).8XDXrX<.j.V.,.y./.H.d.<XL.m.~.Y.<.0X}.9XuX{ $.J.Z a 3 6 & O - @ O x ; > UX& UXUXUXUXUXUXUXUXUXUXUX",
"UXUXUXUXUXUXUXUXUX$ $ ` : % . @ ^ jXwX].#.5 % % h b n m._.gXJ.}.=.k.v h | #., R l 8 N k A { t.| $.0XF.7X2X5XqX3X[ a.T r O = O X = t h UX& UXUXUXUXUXUXUXUXUXUXUX",
"UXUXUXUXUXUX; UXUXUX< t & % # # &.6XdXL.q % > g h X.Z.f.rX9X7.X.y y B v A 2.t ` t B g Y a ) c c t.h.| 9XB.5.K.8XaX.Xx.' O + $ . . $ : > > UXUXUX* UXUXUXUXUXUXUX",
"UXUXUXUXUXUXUXUXUX, , t 5   . 9 ~ 3XA.V q % : U A F Q.0X8X-./ ) c r.! Q d.<.) P ` U U p t b c n { D j _ { 5._.8XeXH.b./ & > %   - X $ > > > UXUXUXUXUXUXUXUXUXUX",
"UXUXUXUXUXUXUXUXUXr U r # . # = D 3.Y.c = 4 > w.j.t.vX).6Xg ( M.Q ( r.l.J.A.q.a.~ r p J y c ` h n N i v n L <.6XCXhXf.C 5 h % O O X $ c L > UXUXUXUXUXUXUXUXUXUX",
"UXUXUX* ; UXUXUXUX3 x g & X & 9 !.[.A D > T 3 w.V.wXrX} Y P ( ` r.T r.q.(.{.).f.Q.B.O.w.P u z g g k h h N ` a.S.J.rXE.Z g 3 $ - # UXUXUXUX> S UXUXUXo UXUXUXUXUX",
"UXUXUXUXUXUXUXUX3 c L t     % { 5.rXG V 4 l M Q.tXeXf. .) ] 0.` ( w. .|.dXuXdXE.5X8XdXgXd.k h P L ) 3 g > g Y j.S.fXsX2Xw.3 3 > k UX% UX> a $.; UXUXUXUXUXUXUXUX",
"UXUXUX* + UXUXUX; 3 x & X % = A rXCX&.6 v t ^.^._.P._ l./ I ( a.1Xh.-XhXzXnX`.h.).}.1.2XrX].6.J.j ( y r r 3 ] ( g.sX^.yXC.g h 4 i UX= UXUX$ = + % UX$.UXUXUXUXUX",
"UXUXUXUXUXUXUX$ r t b & X - = H !.h.b r r U h.#.wXeXl.! ( W z.e.j.Q.{.+XsXeXT.y.F.r.b.=.).{.{.gX=.a.P y h h g y ` d.a.} V.N / c a UX$ UXUXd < > # UXUXUXUXUXUXUX",
"UXUXUXUXUXUXUX$ 4 Q a 4 X = C #.VXQ.k p g h m.G.jX$.l.W 0.r.a.).dXsXx.^.cXnXcXu.K t.a.%.A.8X4.K.} j.[ h T T t P ) e.s.G.qXB.A 4 b 1 : UXUXUX: , > UXUXUXUXUXUXUX",
"UXUXUXUXUXUXUX$ i c 6 > . - L F yXA.[ t c _ s.).VXy.q.w.e.W ).{.c.;Xn.-XzXnX>Xn.v.a.l.y.R.!.J.4XhX6.6.U B ` L g T M s.f.4.[.U.h y & O & UXUX1 > 3 UXUXUXUXUXUXUX",
"UXUXUX; UXUXUX$ B g i * O 1 > V eXf.P.M g Y e.D.).l.u.q.b.w./.^.-X+X%XSXNXZXcX%XXX$Xi.e.Q z.h.eXuXP.!. .L E x t l t B j.>._.Q.v ) 6 & UXUXUX1 ( t UXUXUXUXUXUXUX",
"UXUXUXUXUXUXUXr i 6 g & 7 7 - { dXj.#.m c m.e.}.J.w.n.e.+X%XgX-X:XxXnXKXFXJXmXcX<X%Xl.M.1XJ ~ O.gXkXH./.F a.T x x E ( w.) B.5XB b q.UXUXUXUXUXv , UXUXUXUXUXUXUX",
"UXUXUXa UXUX$ l p 6 4 & q % 6 A dX_.a h < B h.6X`.e.q.e.r.c.gXgXSXFXGXKXGXKXLXAXnX/.%X$X] ( s x D.2XwXU.3XB l.x y E ( a.k ! <.Y. .3 P UXUXUXUXm x > UXUXUXUXUXUX",
"UXUXUXE.UXUXUXu y T t &   5 C L.6X).q m c U ).0XpXl.z.n.u.sXbXLXHXHXFXSXDXGXGXKXJXFX;X.X$Xx.W I { c.(.Z.'. .d.( y , L z t F 8.uX%.r > UXUXUXUX4 t % UXUXUXUXUXUX",
"UXUXo < UXUXUX0.x.M.c & > U j =.dXVX%.& ` ' '.%XT.u.q.e.$X-XbXKXFXAXMXmXGXJXMXGXKXKXHXoX<X:Xl.r.` l.}.G.[.-. .' w.l k.l a.U M U.3.[ D UXUXUXUX: i A UXUXUXUX+ UX",
"UXUXUX$ UXUXUXz.@Xw.> 4 % 6 k V VXrX$.= Y ` [.oXsXc.x.e.cXNXSXKXFXJXSXGXKXKXKXJXKXKXKXlX;X.X.Xu.L z *XCX0XB.F.P l ( ) m q.v C =.H.N [ g UXUXUX& 1 N.UXUXUXUXO UX",
"UXUXo o UXUXUXUXP Y t & & - i q tX}.m.8 [ b.;.qXaXoXm.Q.>XVXMXAXZXSXHXKXKXKXKXKXKXKXGXFXNX=X&Xf...} '.IXgXV.T.w.g x c Y p c c V.6.N h 4 UXUXUXUXa h UXUXUXUXUXUX",
"UXUX$ ; $ UXUXUXUX' u > c - *.@.CXPX8.3XG.L.eXiXPXMXMXDXDXDXGXKXGXJXKXKXJXKXJXKXKXKXJXGXSXnXhXjXyX9XyXLXPX9.[._.6.2.,.oXG. ., b G.[ i , UXUXUX6 r 6 UXUXUXUXUXUX",
"UXUX4 i UXUXUXUXUXv k > 4 6 j n o.6XC.<.=.q.R.-X0XBX&X>XcXxXMXSXSXMXAXKXJXKXKXKXGXFXAXAXzX^.W.y.{ S X.aXCXL.<.d.' t.M w.| ) x S I.>.z T $ UXUXUX6 t p UXUXUXUXUX",
"UXUXO UXUXUXUXUXUXm c 1 7 $ y Y s 5.H.H. .P s OX6XPXgX+X.X<XZXKXAXMXMXGXJXGXKXKXMXFXGXNXOXXXa.0.W I U DXCX2.K.=.l q.L U g j i C A.$.p r $ UXUXUX6 a > UXUXUXo UX",
"UXUX6 UXUXUXUXUXUXy.k 6 7 8 0 6 , 3X[.{.N.b W e.5XdX%XoX%XxX,XvXHXLXZXJXKXKXKXAXZXSXFXmXDXoXu.u.r.s I rXeX} G.*Xm w./ z.b g 6 %.F.U.i 1 < $ UXUXc h UXUXUXUXUXUX",
"UXUXi > < $ UXUX> Z i t > 6 1 i k o.K.tXS.d ~ W q.%X-XlXDXOX%X:XxXSXJXAXKXKXKXMXSXLXMX>XaX<XR.e.K r. .gX9X/ 7.H.F P x B b i % G g.O.> % , < UXUXUXh i UXUXUXUXUX",
"UXUXUXUX* UXUXUX0 S V 4 v g g 3 t h 1.hXC.[ <.s s.).=XyXlXbXzX>X,XzXZXZXZXGXGXmXZXLXKXsX0Xx.y.n.; 0.t.sXfXK.8X1.E L L ' e.$ > G A.2X& $ * UXUXUXUXk c UXUXUXUXUX",
"UXUX# r r UXUXUX> 7.P.g t $ V t 5 5 N ].-Xm.| e.r.;.j.).lXGXHXlXxXlXZXFXZXJXFXMX,XmXZX<XaXi.e.b < W ' ~.gX-.|.[ g. .c b w.< O O.5.!.7 & : UXUXUXUX5 > UXUXUXUXUX",
"UXUXUX6 < , UXUXo > C ' h } % k g k n -.j.W.T.y.m s.L ( Q.DXDXHXZXGXSXGXGXGXkXmXlXSXcX^.E.n.' s l P n.VXhX6./ w.'.a.E x T r & o.^.A i ; UXUXUXUXUX5 4 UXUXUXUXUX",
"UXUXUXk t $ UXUXO 9 #.C 8 j 6 t 4 } k R =.-XBXp./ J J ! e.oXsX&XVXNXbX>XMXAXvXNXbXjXZXdXbX%XK s J n `.CX0XF E.t.R s.Y Y v > > O.I.{ A r ; UXUXUXUX3 c UXUXUXUXUX",
"UXUXUX% & t $ UXUXUX5 @.c y p u 3 h : 6 { h.gX5X7Xe.x ~ e.e.M..X/.+X:X:XmXSXMXzXjXbXnX&XR.' u J P ( ~.NXU.J.U.L./ k.q.) 6 > g { 4X%.6 $ $ UXUXUXUX6 6 UXUXUXUXUX",
"UXUXUXO i UXUXUXUXUX> 7 b L 6 6 , 7 1 c N / k.qXOX8XD.h x.Q q.r.v.$X%X<XzXDXAXbXbX*XW.sXn.r.s x , M qXtX5X^.[ l r.K c 6 h 6 6 +.5X<.8 > UXUXUXUXUXUXUXUXUXUXUXUX",
"UXUXUXo UXUX4 * UXUX> Z O.N Y h 4 8 e F / F h.H..X2XaX).c.S.).R.0XsXvXZXSXAXZX*XdX5X].*Xl.s P J I V.{.].H.t.g Y ( a.v 4 4 4 a L.rXC & 2 UXUXUXUXUXUX> % UXUXUXUX",
"UXUXUXUXUX6 , > O o + 1 C G ' h g x a k t P w.h.k.=.8XC.pXpX=XT.E.OX[.aXPXKXDXnX*XoX+Xz.s u ( w.d.sXgX}.5XG./ E E l 3 4 a i A <.O.0 $ : u UXUXUXi - = * UXUXUXUX",
"UXUXUXUXUXUXh 4 o O O % 0 G %X| t > i [ k 4 N h.e.h.k.'.(.).A.^.5X=XNXVX6XJX=X-X+Xg.` e.j g m ( *XjX9X5.^ { R _ a 6 6 4 4 k K.G C & $ UXUXUXUXUX> UXUXUXUXUXUXUX",
"UXUXUXUXUXUXUX> . . O + D D.Q.N.A , 6 5 > 4  .d.T G.C.kXsXJ.8X|.sXgXvX&X&XDXsX%X| a.~ w.q.x #.<.hXhX%.{ A _ v x b i i g c.U ~.U.9 + 3 UXUXUXUX% & - 6 UXUXUXUXUX",
"UXUXUXUXUXUXk p , + + . a 2X=X%XN.s l y 1 3 , r m [ m <.y.n.j.S.rXE.*X~.).9XR B x y r t y L q.S.}.<.1.#.I.v m w.r 7 4 3 r.X.wXO.8 & , , % UXUX8 UXUXUX% UXUXUXUX",
"UXUXUXUXUXUXUXUX$.1 ; O O > pXp.sXB.^ g , t h 6 h ]  .} e.r.' $.Y.6X). .H.2.l g M s ( ` ) N.aXdX=.K.[ e t.' t._ h 3 4 v +X} 5XD O * k UXUXUX1 % UXUX* UXUXUXUXUX",
"UXUXUXUXUXUXUXUXX.d 4 = $ O w.pX).>Xm.| U T c a { A R Y T _ F C S U g ( { U.x s x  .P m X.wX5XK.k 4XS n R r.z i i % 4 n.;X%.G i % , r UXUXUXUXUXUXUXUXUXUXUXUXUX",
"UXUXUXUXUXUXUXUXUXa 4 r 6 6 + a v.<.3.(.J.^ ~ ; < > y m 4 N g y z b N / V V.l y ` H./ f.C.VX>.>.0 C V [ x.I % > & % | .XMXA.} Y UXUXUXUXUXUXUX= UXUX$.UXUXUXUXUX",
"UXUXUXUXUXUXUXUXUXUXa 3 z t 2 $ B 1 C Z C.A.p u y c < l ) Y z l x l x z [ J.q./ X.G }.gX}.5.t F [ U D /  .6 7 8 > g v.xXmXOXJ.> UXUXUXUXUX- UXUXUXUXUXUXUXUXUXUX",
"UXUXUXUXUXUXUXUXUXUX6 , p U p & O $ t n 2.Y.4X%.(.(.c ^ Y L I E b z ( L F +.[ 5X5XVXdXP.} h 4 a c M s./ x c e.! ' .X<XZXxX@X.Xc.u.s b UXUXUXUXUXUXUXUXUXUXUXUXUX",
"UXUXUXUXUXUXUXUXUXUXUX> 6 g b ( J r > 4 h @.3X:.rX`.'.Y.N.1.R.P E ( e.z D.yX[.qXCXyX$.k q.V 6 1 J ) s.h > 1 r 1 i y.jXmXNX:X@Xr.UXUXUXUXUX= UXUXUXUXUXUXUXUXUXUX",
"UXUXUXUXUXUXUXUXUXUXUXUXUXUXi T Q h i M 6 g 6 D G A f.Y.dXL.yX/.0X*X}.G.qXfX~.K.wXL.[ N c.D p ^ | [ 7 = 1 O + O m j wXZXBXl.I $ UXUXUXUXg.= UXUXUXUXUXUXUXUXUXUX",
"UXUXUXUXUXUXUXUXUXUXUXUXUXUXUXh y ) c i 6 4 b e.R ,.+.j G 2XyXQ.6X0X_.{.8XuX0XF.A M [ ~ XXg.q.e.( i 3 i = + - 2 A I.P.O.XX~ ; < UXUXUXUXUXUXUXUXUXUXUXUXUXUXUXUX",
"UXUXUXUXUXUXUXUXUXUXUXUXUXUXUX= p t y h r 3 v 6 7 } 7 k n n } [ L.H H } 2.5. .U x ! t.>XxX#X<XW.n v > > % t 0 &.5.#.0 = r.< UXUXUXUXUXUXUXUXUXUXUXUXUXUXUXUXUXUX",
"UXUXUXUXUXUXUXUXUXUXUXUXUXUXUXUXUX4 UXU i t ` ~.c c ` / a 7 n V F M j [ { 3.T T R z.x. X#X+XR 2 5 i 1 # O > 3.9.4Xw 9 > W UXUXUXUXUX= 1 UXUXUXUXUXUXUXUXUXUXUXUX",
"UXUXUXUXUXUXUXUXUXUXUX= UXUXUXUXUXUXUX$ 3 h x D a.U _ U c 4 8 I g y ) Y N R T c i R M./  Xt.2 1 = UX, 6 = H 2.Z Z UXUX% ~ UXUXUXUXUXUXUXUXUXUXUXUXUXUXUXUXUXUXUX",
"UXUXUXUXUXUXUXUXUXUXUXUX1 UXUXUXUXUXUXUXUXUX$ O J > g y g g g g v l.e.U J r.Q v b ` x % +Xx UXUXUXO $ e ,.G G :.UXUXUXu b $ UXUXUXUXUXUXUXUXUXUXUXUXUXUXUXUXUXUX",
"UXUXUXUXUXUXUXUXUXUXUXUX> = UXUX$ UXUXUXUXUXUX> UX> ; > h ) m % r Y U x i p > r & 1 UXUXUXUXUXUX> 1 - V O.A UXUXUX$ UXUXUXUXUXUXUXUXUXUXUXUXUXUXUXUXUXUXUXUXUXUX",
"UXUXUXUXUXUXUXUXUXUXUXUXUX6 i h 6 UXUXUXUXUXUXUXUXUXUXUX& UX> > % 4 6 % > UXUXUXUXUXUXUXUXUXUX& b R n +.7.UXUXUX$ O o UXUXUXUXUXUXUXUXUXUXUXUXUXUXUXUXUXUXUXUXUX",
"UXUXUXUXUXUXUXUXUXUXUXUXUXUXUXUX> 7 UXUXUXUXUXUXUXUXUXUXUX& & UX& UXUXUXUXUXUXUX= UXUXUX> i y > k G Y.G b UXUXUXUXUXUXUX$ UXUXUXUXUXUXUXUXUXUXUXUXUXUXUXUXUXUXUX",
"UXUXUXUXUXUXUXUXUXUXUXUXUXUX4 UX+ 6 4 1 * UXUXUXUXUXUXUXUXUXUXUXUXUXUXUXUXUXUXUXi UXi 5 & M C >.+.,.V - UXUXUXUXUXUXUXUXUXUXUXUXUXUXUXUXUXUXUXUXUXUXUXUXUXUXUXUX",
"UXUXUXUXUXUXUXUXUXUXUXUXUXUXUXUX+ 6 UXz 3 S UXUXi & UXUXUXUXUXUXUXUXUXUXUXUX= UX3 6 > 5 V 2.3.>.6.1 = UXUXUX$ UXUXUXUXUXUXUXUXUXUXUXUXUXUXUXUXUXUXUXUXUXUXUXUXUX",
"UXUXUXUXUXUXUXUXUXUXUXUXUXUXUXUXUXUXUXl h E.a a 6 g c 6 > i UXh 3 > a 5 7 F 7 V 7 V H C ,.} Y.k UXUXUXUXUX* $ UXUXUXUXUXUXUXUXUXUXUXUXUXUXUXUXUXUXUXUXUXUXUXUXUX",
"UXUXUXUXUXUXUXUXUXUXUXUXUXUXUXUXUXUXUXUX3 % 4 UX; > r y r ` m h p B N ,.7.+.@.Z C 6.1.V k - UXUXUXUXUX< UXUXUXUXUXUXUXUXUXUXUXUXUXUXUXUXUXUXUXUXUXUXUXUXUXUXUXUX",
"UXUXUXUXUXUXUXUXUXUXUXUXUXUXUXUXUXUXUXUXUXUX* UXUX4 O ) y UX> 3 x U r i q.5 h l > t & UX- UXUXUX; * UXUXUXUXUXUXUXUXUXUXUXUXUXUXUXUXUXUXUXUXUXUXUXUXUXUXUXUXUXUX",
"UXUXUXUXUXUXUXUXUXUXUXUXUXUXUXUXUXUXUXUXUXUXUX3 UX> UXUX> > > > UXh 6 = 4 5 UX& & & UXUXUXUX* UXUXUXUXUXUXUXUXUXUXUXUXUXUXUXUXUXUXUXUXUXUXUXUXUXUXUXUXUXUXUXUXUX",
"UXUXUXUXUXUXUXUXUXUXUXUXUXUXUXUXUXUXUXUXUXUXUXUXUXUXUXUXUXUXUXo O % UXUXUX$.D 5 UXUXUXUXUXUXUXUX* UXUXUXUXUXUXUXUXUXUXUXUXUXUXUXUXUXUXUXUXUXUXUXUXUXUXUXUXUXUXUX",
"UXUXUXUXUXUXUXUXUXUXUXUXUXUXUXUXUXUXUXUXUXUXUXUXUXUXUXUXUXUXUXUXUXUXUXUXUXUXUXUXUXUXUXUXUXUXUXUXUXUXUXUXUXUXUXUXUXUXUXUXUXUXUXUXUXUXUXUXUXUXUXUXUXUXUXUXUXUXUXUX",
"UXUXUXUXUXUXUXUXUXUXUXUXUXUXUXUXUXUXUXUXUXUXUXUXUXUXUXUXUXUXUXUXUXUXUXUXUXUXUXUXUXUXUXUXUXUXUXUXUXUXUXUXUXUXUXUXUXUXUXUXUXUXUXUXUXUXUXUXUXUXUXUXUXUXUXUXUXUXUXUX",
"UXUXUXUXUXUXUXUXUXUXUXUXUXUXUXUXUXUXUXUXUXUXUXUXUXUXUXUXUXUXUXUXUXUXUXUXUXUXUXUXUXUXUXUXUXUXUXUXUXUXUXUXUXUXUXUXUXUXUXUXUXUXUXUXUXUXUXUXUXUXUXUXUXUXUXUXUXUXUXUX"
};
