/* XPM */
static char * wall_xpm[] = {
"80 80 255 2",
"  	c #FFFFFF",
". 	c #FEFEFE",
"+ 	c #FDFDFD",
"@ 	c #FCFCFC",
"# 	c #EBEBEB",
"$ 	c #A4A4A4",
"% 	c #757575",
"& 	c #C2C2C2",
"* 	c #F7F7F7",
"= 	c #FBFBFB",
"- 	c #F8F8F8",
"; 	c #C3C3C3",
"> 	c #A3A3A3",
", 	c #EAEAEA",
"' 	c #FAFAFA",
") 	c #EFEFEF",
"! 	c #E5E5E5",
"~ 	c #E2E2E2",
"{ 	c #F1F1F1",
"] 	c #F5F5F5",
"^ 	c #E9E9E9",
"/ 	c #EDEDED",
"( 	c #D2D2D2",
"_ 	c #909090",
": 	c #727272",
"< 	c #F6F6F6",
"[ 	c #E6E6E6",
"} 	c #F3F3F3",
"| 	c #E4E4E4",
"1 	c #DDDDDD",
"2 	c #ACACAC",
"3 	c #6C6C6C",
"4 	c #A5A5A5",
"5 	c #EEEEEE",
"6 	c #E7E7E7",
"7 	c #D0D0D0",
"8 	c #929292",
"9 	c #A2A2A2",
"0 	c #F2F2F2",
"a 	c #DFDFDF",
"b 	c #B4B4B4",
"c 	c #C5C5C5",
"d 	c #565656",
"e 	c #E1E1E1",
"f 	c #B2B2B2",
"g 	c #959595",
"h 	c #989898",
"i 	c #BBBBBB",
"j 	c #E8E8E8",
"k 	c #F0F0F0",
"l 	c #C4C4C4",
"m 	c #B1B1B1",
"n 	c #DCDCDC",
"o 	c #979797",
"p 	c #949494",
"q 	c #6F6F6F",
"r 	c #545454",
"s 	c #A7A7A7",
"t 	c #ECECEC",
"u 	c #C7C7C7",
"v 	c #9E9E9E",
"w 	c #D6D6D6",
"x 	c #F9F9F9",
"y 	c #515151",
"z 	c #000000",
"A 	c #4A4A4A",
"B 	c #D5D5D5",
"C 	c #747474",
"D 	c #8F8F8F",
"E 	c #D1D1D1",
"F 	c #363636",
"G 	c #5D5D5D",
"H 	c #B3B3B3",
"I 	c #BFBFBF",
"J 	c #010101",
"K 	c #232323",
"L 	c #828282",
"M 	c #C8C8C8",
"N 	c #D3D3D3",
"O 	c #B8B8B8",
"P 	c #A9A9A9",
"Q 	c #4E4E4E",
"R 	c #212121",
"S 	c #383838",
"T 	c #3F3F3F",
"U 	c #5A5A5A",
"V 	c #AEAEAE",
"W 	c #CACACA",
"X 	c #A6A6A6",
"Y 	c #9F9F9F",
"Z 	c #6D6D6D",
"` 	c #1B1B1B",
" .	c #696969",
"..	c #919191",
"+.	c #7C7C7C",
"@.	c #3D3D3D",
"#.	c #595959",
"$.	c #A0A0A0",
"%.	c #8E8E8E",
"&.	c #5C5C5C",
"*.	c #7B7B7B",
"=.	c #9B9B9B",
"-.	c #A1A1A1",
";.	c #9D9D9D",
">.	c #808080",
",.	c #404040",
"'.	c #868686",
").	c #5E5E5E",
"!.	c #424242",
"~.	c #1D1D1D",
"{.	c #272727",
"].	c #737373",
"^.	c #999999",
"/.	c #C9C9C9",
"(.	c #6E6E6E",
"_.	c #535353",
":.	c #2F2F2F",
"<.	c #4B4B4B",
"[.	c #777777",
"}.	c #464646",
"|.	c #505050",
"1.	c #797979",
"2.	c #484848",
"3.	c #101010",
"4.	c #2C2C2C",
"5.	c #7A7A7A",
"6.	c #616161",
"7.	c #606060",
"8.	c #717171",
"9.	c #767676",
"0.	c #494949",
"a.	c #353535",
"b.	c #5B5B5B",
"c.	c #6A6A6A",
"d.	c #292929",
"e.	c #171717",
"f.	c #333333",
"g.	c #555555",
"h.	c #4D4D4D",
"i.	c #656565",
"j.	c #303030",
"k.	c #B5B5B5",
"l.	c #8B8B8B",
"m.	c #585858",
"n.	c #CCCCCC",
"o.	c #CBCBCB",
"p.	c #AFAFAF",
"q.	c #202020",
"r.	c #C0C0C0",
"s.	c #C6C6C6",
"t.	c #626262",
"u.	c #787878",
"v.	c #B7B7B7",
"w.	c #7D7D7D",
"x.	c #CECECE",
"y.	c #ABABAB",
"z.	c #686868",
"A.	c #A8A8A8",
"B.	c #BCBCBC",
"C.	c #888888",
"D.	c #676767",
"E.	c #858585",
"F.	c #262626",
"G.	c #E0E0E0",
"H.	c #BDBDBD",
"I.	c #8A8A8A",
"J.	c #E3E3E3",
"K.	c #B6B6B6",
"L.	c #939393",
"M.	c #D8D8D8",
"N.	c #9C9C9C",
"O.	c #707070",
"P.	c #CFCFCF",
"Q.	c #525252",
"R.	c #454545",
"S.	c #636363",
"T.	c #8C8C8C",
"U.	c #B0B0B0",
"V.	c #646464",
"W.	c #878787",
"X.	c #9A9A9A",
"Y.	c #474747",
"Z.	c #BABABA",
"`.	c #2E2E2E",
" +	c #575757",
".+	c #6B6B6B",
"++	c #323232",
"@+	c #1F1F1F",
"#+	c #373737",
"$+	c #5F5F5F",
"%+	c #666666",
"&+	c #444444",
"*+	c #DEDEDE",
"=+	c #8D8D8D",
"-+	c #B9B9B9",
";+	c #AAAAAA",
">+	c #252525",
",+	c #343434",
"'+	c #848484",
")+	c #222222",
"!+	c #3A3A3A",
"~+	c #D4D4D4",
"{+	c #BEBEBE",
"]+	c #7F7F7F",
"^+	c #838383",
"/+	c #0D0D0D",
"(+	c #3E3E3E",
"_+	c #161616",
":+	c #F4F4F4",
"<+	c #3C3C3C",
"[+	c #D7D7D7",
"}+	c #DADADA",
"|+	c #969696",
"1+	c #414141",
"2+	c #D9D9D9",
"3+	c #CDCDCD",
"4+	c #242424",
"5+	c #4C4C4C",
"6+	c #070707",
"7+	c #181818",
"8+	c #090909",
"9+	c #2B2B2B",
"0+	c #111111",
"a+	c #2A2A2A",
"b+	c #121212",
"c+	c #818181",
"d+	c #7E7E7E",
"e+	c #2D2D2D",
"f+	c #4F4F4F",
"g+	c #DBDBDB",
"h+	c #313131",
"i+	c #C1C1C1",
"j+	c #1C1C1C",
"k+	c #3B3B3B",
"l+	c #050505",
"m+	c #080808",
"n+	c #020202",
"o+	c #040404",
"p+	c #030303",
"q+	c #060606",
"r+	c #898989",
"s+	c #191919",
"t+	c #ADADAD",
"u+	c #1A1A1A",
"v+	c #1E1E1E",
"w+	c #0C0C0C",
"x+	c #151515",
"y+	c #141414",
"z+	c #0F0F0F",
"A+	c #434343",
"B+	c #393939",
"C+	c #131313",
"D+	c #282828",
"E+	c #0A0A0A",
"F+	c #0E0E0E",
"    . .   . + @ + .           . .               # $ % & *     . + + .       . .       . @ = +     .   - ; % > ,         . + + .     .           . . + .         ",
"    . .     . ' ) ! ~ ! { = ] ^ / '         = ) ( _ : ; -           . < ^ ~ ~ , -     ' # [ } = { ! | 1 2 3 4 #           . .   ' 5 | ~ 6 } +       . . + .     ",
"              < 7 > 8 9 7 0 a b & )         ) c _ d 3 c -           + e f g h i j     k l m n { ( > o p q r s t               . k u v 8 s w x         + ' = .   ",
".     = k j ^ n s y z A 4 B i C D E ^ j 6 6 E 8 F z G H e , j j j , | I : J K L M [ ^ N p : O B P Q z R z S h w ^ 6 6 j j j j [ ( o T z U V a , j j ^ 5 ] ' .   ",
"+ .   { W X Y o Z ` z z  ...+.@.#._ 9 $.Y Y %.&.z z @.*.=.-.$.$.$.-.;.>.,.z z A '.v -._ ).!.*...3 z z z z ~. .g 9 $.$.-.9 -.$.v %.G z z {.].^.-.$.v s /.5 +     ",
"+ .   , s d &.(._.:.<. .C [.% (.G }.|.3 1.1.3 2.3.z 4.U ].1.1.1.1.5.[.6.S @.7.8.9.1.1.Z 0.a.b.].].(.(.c._.d.e.f.g.(.c.Q h. .[.1.9.8.i.}.j.d ].5.9.G d X ^       ",
".     , $.&.h k.l.m...& n./.o.M 4 7.Z p.W o.k.+.q.z Q h r././././.o.s.9 t.u.k.n.o.W W v.w.&.^.& o.o.x.s.v |.z z *.H y.z.i.A.u /.M W B.C.m...r.n.l ^.G ;.[       ",
". @ < n o Z k.N > D.s a t , # [ I % E.n.# t N _ F.z &.f G., , , , t 6 H.].I.7 , # # # B 8 3 H e , ^ t J.K.).z F.L.( M >.w.s.6 , ^ ^ M.N.D.P a 5 | K.O.v ! .     ",
"= 5 P.X Z Q.l.9 5.R.w.2 O v.O f 8 _.S.$.O O 9 c.z z }.T.U.v.k.k.k.O k.L.Q.V.Y k.k.K.O s (.A W.V k.k.O H D 2.z z Z -.^.&.b.X.k.K.b b X C Y.L p.Z.m I.&.$.6     . ",
"x G.$.|.` `. +c.S.U V.Z V.d G .+z.b.Q.|.#. .3 7.Q ++@+#+|.t.q : q V.g.|.r $+3 : : .+b.|.y #.%+O.: q S.y S q.++Q 7.3 c.G _.|. +D.O.: Z 6.r Q Q.t..+y &+^.1 * @ . ",
"= *+D z z 0.=+U.i B.B.m E.T  .> O -+v ).U ^.K.Z.;+u.>+z ,+'.U.-+V E.,.c.s Z.Z.Z.Z.> D._.p K.-+v.Z.m '+)+z R u.P -+Z.B.B.$ %+r L.b Z.-+O y.1.!+5.X D g.: 2 ~+0   ",
". ! 9 0.z D.H., ) t { # {+]+9 1 k , s.w.^+P.0 ] a Y #+z Q.V e k ^ {+>.-.*+{ 5 t # 7 I.[.l ) ] 0 { J.b  ./+(+v *+{ / t # x.'.*.M 5 k t 5 ~ p.*.H G.&  ._+ +s [   ",
". ) x.9 D.].o.:+[ ~+6 - J.l w :+{ ~+s  .T.*+    / P <+z R.8 c 6 * ! s.B :+0 M.W M m C +.E +   + 6 n.I m E.&.;+t 0 [+/.M p.8.L w < J.~+, ] n l a ] P.q z z ..G.+ ",
"+ ' ] }+g C ; ! H.%.H.t 0 # k :+[+|+Q `.'.w x = | 9 !+z q.1+[.{+/ ] / k } [+^.D.V.m.,+C M 0 @ 5 B.T.K.2+b (.$ J.M.h %+V.d ,++.P.J.H _ M { } t :+0 s..+z (+N.G.' ",
"+     , 9 S.N.v.l.y l.{+o.o.3+M s G z z D.2 /.o.O L `.z z z 4+I.I P.P.P.M X b.z z z z b.-.; n.{+W.5+8 I -.).'+v.s #.z z z z S.s b +.|.h s.P.3+x.s.v b.6.^.u t = ",
".     ^ 9 0.m.q _.j.r ].*.*.+.1.V.#+6+>+<..+5.*.q h.7+z 8+7+a.b.C 1.% [.[.z.Y.9+d.K 0+a.6.[.+.C U ,.m..+ +++Q q  .}.a+d.)+b+!+i.q g.,.U O.u.*.w.u.#.R.L.B { ' . ",
".     j 9 r u...q &+q |+$.v Y N.c+Q U T.$.$.v v _ i.R z a.C o -.X.1.!.).D $.-.-.$.=+&.<.d+=.Y Y -.X.% e+z @+%+8 $.$.$.Y l.#.Q c+;.9 |+ .(+O.o -.X.9.r -.j       ",
"+     j $.Z f 7 -.V.-.M.! | ! G.Z.: L u J.! | J.P.L.f.z f+X [+[ 1 U. .T.x.| ! ! J./.E.q K.*+! | [ g+P h.z f.g ( | J.| ~ c c+].i e 6 B ^.S.4 }+6 1 p.Z $.j       ",
"@ .   ^ 9 c.;+u h b.^.P.n g+n [+f Z *.{+2+g+}+g+M %.h+z <.Y P.1 w y.D.C.u n n n g+i+>..+U.[+1 n *+N > h.z h+D /.}+2+}+2+H.1..+f [+1 o.8 7.Y E 1 ~+s  .$.6       ",
"= +   j 9 Q z.>.t.<+t.E.=+l.T.I.: &+h.1.l.=+T.l.d+m.` z e+V.^+T.W..+T g.d+T.T.T.l.5.f+1+q C.T.l.=+E.%+`.z j+U >.T.l.l.I.u.h.}.].I.%.L G k+i.'.%.C.%+Q -.j       ",
"@ * # 3+=+2.V.'+I.l.=+C.c.(+U w.: R.Q 5.T.T.+.r 7+z z z J l+m+8+m+l+n+o+m+8+8+8+8+6+o+p+q+8+8+8+8+m+o+J z ~.U >.T.r+C 2.2.].W.r+r+T.^+G k+V.E.T.E.V.h.9 ^   . + ",
". # {+r+_.G $ x.2+g+1 N 4 $+l.; H (.+.I }+2+i+L s+z z J z z z z z z z z z z z z z z z z z z z z z z z z z ++%.M }+B b q O.k.~+w B 2+n.p 7.;.P.}+7 $ D.-.j . = x ",
"  J.X.`.z G t+M.J.| 6 *+V z.p 3+B.C L M | | o.I.d.z J J J J J n+n+n+J n+o+p+J z J n+p+p+n+n+J J n+n+J z z a.g E ! a H.u.[.H.1 G.G.| w =.i.4 2+! }+t+ .D ( / ] x ",
"+ e g b+z T 5.h $.$.> N.5.Y.D._ '+|.U T.-.-.D 7.u+z p+p+n+n+p+p+n+J z J n+n+J n+p+p+n+J J J n+n+n+J z z z K z.L.-.;.E._.Q.E.N.v ;.$.|+3 R.].^.9 X.1.Y.&.8 ; t + ",
"! n.C.v+z w+@+d.9+9+`.4.@+q+x+F.R 8+3.{.:.:.d.s+p+J o+p+p+p+p+p+n+J z z z z z z z J z z z z z n+n+J z z z q+j+9+j.`.F.y+b+K a+a+a+9+{.u+/+j+d.4.a+q.z+z #+_ ( , ",
"$.=+#.z z z z z z z z z z z z z z z z z z z z z z n+n+n+J J J J J J z z z z z z z z z z z z z z p+n+J z n+z z z z z z z z z z z z z z z z z z z z z z z z b...4 ",
"C 8..+&.<+e+Q V.z.6.Y.d.&+7.z.D.D.%+ +,+o+z z J J J z z z J J z z z 3.T ). .D.m.F ++g.%+ .$+A+_+z p+n+z z z z z J n+z n+,+ +D.z.D.z.7.A+a+2.6.z.V.|.{.z q+A+z.9.",
"i+; c H *.&.=.& /.H.D  +C.B.W M /.u 2 .+q+z J p+o+n+z z J n+n+J z z d.]+v.o./.t+(.D.s u o.Z.W.f.z n+J z z z z z J J z l+c.2 u W /.W i W.m._ {+o.; v _.z z q 2 ; ",
"< } / N _ Z k.J.t 1 A.z.Y n t , # ^ /.d+6+z n+l+l+p+J J n+n+n+J z z h+|+w / # o.L 5.l ^ 5 g+v @.z z z z z z z J J J z 6+d+/., / # t g+Y z.P a 5 ! -+i.u+ +> G.* ",
"  } ~+y.O.g.%.b B.m '+0.1.t+Z.-+i i 9 V.q+z p+o+p+n+J n+z z z z z z z ].y.{+Z.v 7.b.N.Z.H.2 u.u+z z n+J J J z J J J z l+V.9 i B.Z.Z.2 1.0.E.H {+k.D d : t+B }   ",
". ! 4 r q.:.m..+V.d f+y $+(.].8. .b.Y.d.o+z o+n+J J z z _+S A f+Q Q f+|.r $+3  .#.f+y b. .3 7.5+f.b+z n+n+J J z J J z n+d.Y.b. .8.: Z $+Q.f+d V..+y &+X.1 * = + ",
"  ~ 8 z z A _ 4 +.}.w.2 v.k.v.H g |.z z n+p+p+n+n+J z z T W.U.-+v.-+k.L.Q.V.Y K.K.Y V.|._ H -+t+c+F z J J J z z J J n+J z z f+L.m K.K.O V ]+}.*.$ l.&.-.j     + ",
"  ! -.R.z V.i w X %+> g+, , t j ; ].z z z J J p+p+n+z z Q.t+a # ^ # [ H.].I.7 , j o.'.].{+6 / n 4 Y.z z z z z J J z z z z z : i+[ t , t a X D.4 w v.O.v [ .   . ",
"  k x.9 z.b.v O l.|.l.{+o./.o.u s t.z z z z J n+p+n+z z }.p r.o.W n.s.-.&.: f /.u V ].t.> s.n.H.I.:.z z J z z z z z J z z z &.$ s.n.n.n.I T.|.I.v.N.S.$.6 .   . ",
"  = { B L.&+m.q G &+_.z.: [.5.[.S.S z z z z z J n+n+J z F.m.: C q : % i.A Q.Z 1.u.z.A+S 7.9.5.: &.<+R w+z z z z z z z z y+a+0.D.% : q C ].&.}.&.q d 2.9 j   . + ",
"  < J.i+^+Q 1.N.$ =.8.a.V.p > Y '+Y.z z z J z z J p+z z d.% ..].,+6.L.9 9 9 $.$.$.T. +}.>.;.$.v 9 =.% 4.z z n+J J J z o+r I.$.9 ..G #+9.;.$ 9 > N.[.r > ,     + ",
"  ^ H : k+i.K.~ t a y.3 Y }+, ~ {+C s+z J z z z z z q+z #.U.w m 3 |+E ! j j j ^ j P.T.% O a ! ! ^ a p.#.z q+J n+p+p+z m+[.r.e j B o Z p.*+^ j , ~ b (.Y [ .   . ",
"  ~ g z z Z o.=   = B m P.] ] *+c A.^+f+o+z J z z z k+].X }+:+g+p.H P.[ x         5 & y.i+g+k +   ' M.> O.B+z z n+p+z 6+q b 1 ] } o.y.H.2+) +   ' M % '+c ! ] @ ",
". ~ h )+z .+M *   @ k ! ) * 2+4 y.P.r.1.m+z n+J z z U V a :+' :+~ I N.-+, +   . + * # ~+y.> B x   @ { g+;+m.z z J J z n+(+Z X a - { }+f Y n.]   ] c (.&+5.b ! x ",
". , Z.c+<.$+y.B 1 n g+}+*+2+p.%+E.; H.[.6+z n+n+z z m.y.w a *+a [+;+S.E.c g+n n g+g+n u W.S.;+[+a 1 1 ( X g.z z J J n+J z z .+K.2+G.7 g G ;.7 n ( ;+b.z 0+L.*+' ",
"  * [ s.W.2. .r+%.%.%.%._ l.(.k+_.]+*.5+p+z n+p+z z #+q T...D ..T.(.!+y d+=+%.=+T.=+D L r B+.+I._ %.D r+3 F z z J p+l+o+z z (+].T.8 W.).,+t.'.%.W.3 #+z e.g e + ",
"    @ | v <.6.c+W.W.W.c+i.(+m.1.O.&+z+z z z J p+J z f. .w.t.@.).>.W.>.z.1+Q.u.% h.Y.O.E.W.'.C.>.).(+t.+. .f.z z n+o+l+o+z z 1+8.*.#.(+V.>.'.'.C.'+z.<+0.*.K.^ . ",
"      j $.%+-.3+w w [+3+v &.T.l k.z.z z z J J n+z z d P s.X.U L.o.M.P.A.S.d+H.-+9..+m N 2+2+}+o.L.U ^.c A.g.z z n+n+n+p+z z .+b & I.G 9 7 M.B M.E s V.E.c | :+' ",
"      j $.3 t+g+! ! [ g+y.%+|+7 r.: z z J J J J z z &.k.~+X V.Y M.[ g+f Z I.o.s.>.% H.e [ [ j 2+Y V.X N b &.z z J J J J z z 8.r.P.|+D.t+1 ! | [ a f (.Y [ + = x ",
".     j -.r [.=.> > 4 v 1.1+%+L.C.f+z z n+J J z z z ,.L h % ,.Z ^.> =.d+<.7.D l.g.5+E.$.X X X X.Z T % h c+,.z z J n+n+J z z 0.W.8 %+!.5.Y $ 9 $ Y 5.d $ t     @ ",
"+ .   j 9 Y.r C 5.% ).R.y z.].% S.S z z n+J z z z z z+>+<+ +c.].9.1.9.7.S R.c.9.8.O.% q g.2.S.% % .+m.@.>+z+z z n+n+z n+#+G q 9.[.].z.Q.R.).C 5.% d R.|+M.:+= . ",
"@ .   , 9 t.h ; n.i+_ Q.W.{+x.u X t.z z J n+J J J n+z z @.p & o.M W s.> t.9.H W n.n.o.K.1. +X.c P.; g (+z z n+p+p+n+z l+3 p.W n.W 3+I W.Q._ i+n.& =.#.S.=./.5 . ",
"@ = < n |+Z b ~ / e y.z.v g+/ 6 & ].z z J n+n+J J n+z z Q.t+a , j # [ H.].I.7 # t # # ~+..Z K.! ) e V _.z z n+o+p+J z 6+w./.^ t # t n Y z.y.e / ~ K.V.F Z U.6 + ",
". k 7 s Z Q.I.p.v.t+>.}.9.P -+k.o Q.z z J n+J n+n+n+z z T W.U.-+v.v.f _ |.V.Y K.-+O v.> .+5+=+b B.m C.T z z J n+n+J z l+t.v v.O K.-+2 1.Y.>.t+v.p.I._.C p.w { . ",
"  [ $ |.s+`. +(.].q V.U t.Z %+d y Q.Y.a+J z J n+n+J z z _+S <.Q |.$+3 z.&.$+.+ .U #.z.3 6.g.|.f+f+<.S e.z J J J J J z p+F.!. +z.3 $+y y m.i.q ].(.|.&+N.e ' + . ",
"  ! o q+z 5+..b Z.-+Z.i B.K._ |.O.s 9 %+o+z z J J J J n+z z z z x+u.2 B.B.H.-+v 7.#.^.-+{+p.*._+z z z z n+J J J J J n+n+z z r X.s % h.=+v.H.-+i k.=+).$ t       ",
"- 1 p q.z S.O | t # , ^ t [ Z.O...( W >.6+z z z J J J J z z z z <+v }+t # t , o.L 5.c ^ 5 g+v <+z z z z z z J J J J J n+z z % c B X.3 H | / , / ! K.q =.e x - * ",
"; 2 q z z _.;.& W /.M u W l Y $+*.H 2 3 q+z z z z J J n+n+J z z ++W.Z.W /./.M t+(.z.A.u n.i W.++z z z z J n+n+J n+p+p+n+z z S.A.K.^+b.h ; W M W l N.G 5.H s.l & ",
"% .+_.S v+a+f+V.z.D.D.%+z.i.|.`.@.b.m.a.o+z z z z z J n+p+n+z z x+A+$+z.D.z.D.m.F ++g.%+ .$+A+x+z z z z n+p+n+J p+q+l+n+z z j.g.G 1+4.h.V.z.D.z.V.f+4.@.G 3 ].% ",
"$.9 X h c.s+z z z z z z z z z z z z z z z z z z z z z p+n+n+n+p+z z z z z z z z z z z z z z z z n+J J n+p+n+p+z z z z z z z z z z z z z z z z z z z z z z d _ $ ",
"! 6 , w |+,+z a+9+a+9+d.` q+e.a+`.4.K C+y+F.`.j.9+` o+z J n+p+l+o+z z z z z z z z z z z z z z n+n+J p+o+p+J z p+s+d.:.:.D+_+0+)+F.s+z+v+a+4.9+9+a+q.0+z a._ ( # ",
"@ .   ^ 9 r u.N.$.Y $.=.1.Y.%+p > $.W.r r C.$.> p z.)+z z J p+o+o+o+n+n+J J J J n+n+J z z z n+n+n+J p+o+p+J z s+t...9 -.l.#.|.E...z.Y.1.=.9 -.9 ;.+.0.&.8 c )   ",
".     6 $.Z p.1 | e | n 2 z.L.( 6 ~ i+5.5.i+J.6 ( g a.z z z J J n+p+p+p+J z z z J J z z z z J J z J n+n+n+z z d.=+x.[ | s.c+% H.P.|+z.2 n [ | [ a m .+D ( k =   ",
"      6 $. .s N 2+[+}+N 4 $+r+M 1 2+O : 8.O M.n /.%.++z z z z z z z z z z z z z z z z z z z z z z z z z p+z z 7+'+l n g+{+1.3 b c =+$+> ( n g+1 B A. .-.^       ",
"      j -.h.%+W.T.I.l.'.z.(+#.>.=+I.% 0.0.9.l.=+>.U ~.z n+q+8+q+n+o+m+8+8+q+p+p+q+8+E+m+l+p+l+m+8+8+l+n+J n+z 7+g.d+=+l.u.h.}.].d+b.(+ .W.T.l.=+C.D.Q 9 ^       ",
"      ^ 9 h.V.'.=+'.i.@.G L %.I.: R.Q 1.l.T.T.l.]+#.j+z e+%+d+D.k+U >.=+I.].}.<.u.l.l.+._.(+.+W.%.E.%+`.z j+U >.=+l.9.A 0.9.l.=+T.T.l.T.'+t.<+t.>.z.Q 9 ^       ",
"      6 $.z.$ E n 7 ;.G L.3+*+[+m c.5.I }+g+2+2+s.=+j.z 5+> u $ t._ o.*+2+v.: 1.H.g+g+l '.%+;+B a N > h.z ++_ W *+2+O : ].Z.}+n }+g+g+n x.h b.^.M y.c.-.^       ",
"  x / 7 =+ .t+}+! }+4 S.X.w 6 G.Z.].c+s.J.! | J.P.L.++z 5+P P.;+V.g ( [ ~ {+9.d+c J.J.o.I.z.U.1 j g+;+|.z ,+g ( [ J.i+5.5.& J.! | | J.| [+$.V.-.E H .+%.E 5 x + ",
". t ; ..b.}.[.h $.o O.(+ .|+9 N.c+Q m.I.v -.$.Y _ i.v+z 4.% ..% T V.8 -.Y E.Q.m.l.$.Y T.b.1+u.X.9 X.[.F z R %+..$.v '._.g.C.Y $.Y v v Y g (.&+q ..+.2.b._ r.j x ",
". J.=.#+z h+$+[.w.*.u.O.#.,.d O.i.<+&+c.3 Q 2.z.q Q ++m..+m.(+_.Z [.u.D.R.)+m+8+4+2.c.u.[.% 1.C b.a.e.m+z 7+Q 8.+.5.D.(+3.@+&+%+[.*.+.+.C r j.r O.7.#+A+].U.J.- ",
". ~ L.z z r $.s.x.3+P.s.h f+d+K.A.D.C p.V 3 G 4 v.'+).-.I 8 h.r+r.P.M $ m.z z z z G P W 7 P.x.I I.K z z z `.'+Z.n.M 2 c.z z r -.l n.n.3+r.=+Q.=+Z.Y ).*.-+n 0 = ",
"  6 y.t.F.3 c 0 } t } { M ..b [ P.>...2+*+X X.[+J.$ (.b 2+K.l.i 5 + < n.9.++d t.%+X.2+] { / ] 5 I u.1+q.z k+$ [ @ - ~+E.j.f+p N k k / :+5 {+%.{+j s.C %.( ) '   ",
"  :+}+b 9.% n.:+*+l *+- # B J.* w E.g ~ ] 1 M.0 / ;+&.E.m I n.[ +   . ( w.8.t+c M M.} ] B s.6 ' ^ s.8 }.z @.;+)     n l.c.A.B { :+w c ! x 6 N 6 * 3+C D.> P.{   ",
"  . ' e X.: {+a f +.f [ k t k ) M *.l.B { ) / { a Y (+F+ .b ~ k 0 :+5 ; 9.'.n.6 # / { *+$.c+& / } ~ V _.z S Y G.] { 3+L d+u # 0 G.$ ]+{+# k # k t r.z.z 0.9 !   ",
"      t $ G l.$ u.k++.V Z.-+Z.b L._.S.-.-+i Z.Z.;+u.)+z K ^+U.-+K.O k.8 Q.V.Y v.-+Z.Z.X  .!.C.m i m '.,+z >+1.;+Z.k.o #.).v Z.Z.4 .+T E.m i i i f D A z z ..G.+ ",
". + ' e N.R.y .+t._.|.d t.(.: 8.D. +|._.G c.3 7.Q ++q.#+|.t.q ].O.D.U y |.b. .O.8..+$+_.Q r V.O.].q t.f+#+@+++Q 7.3 z.#.|.Q.b. ..+).d V.Z V.U V..+m.:.` |.9 J.@ ",
"@ k B p.C r T.m Z.U.^+Y.C s k.k.O v.=.&.&.^.-.3 z z }.T.U.v.k.v.U.I.5+(.s O k.H f ;.t.y ..f v.k.k.k.v.U.T.}.z z  .9 v.O $.S.Q._ m O O O 2 w.}.+.X %.r Z X 7 ) + ",
"x | t+3 F i.O ! ) e y.z.;.2+, , t ^ u d+>.M ( L.F.z &.H G.# , / ! K.Z 8 B , j j 6 3+C.8.Z.| # , # , , G.f &.z F._ N t # 3+'.C {+| # , / a s z.X [+-+q o n * @   ",
"= # u h G r =.l 3+i+_ Q.E.H.n.n.3+/.;+%+z.y.b d+R z f+=.; o./.o.l N.G w.v.W W W /.m : b.v ; W /.W /.o.& =.f+z q.*.k.o.W p.(.).-.c n.n.x.& D Q.T.O ;.V.9 ,       ",
". ' 0 [+^._.).9.*.C ).R.Q.D.Z (.: 9.c.h.Q c.3 A b+z {.y c.].u.5.9.&.a.0.Z % q 3 3 t.<.2.V.9.1.1.1.[.].c.y {.z 3.2.3 1.1.3 |.A %+C : (.(.c.g.&+G O. +2.9 ^       ",
"      { /.4 ;.Y v v -.;.1.a+z z m.%.$.-.-.$.D &.z z z z s+O.h 9 =.u.,.$+=+^+A+z z !.^+;.$.v Y Y $.|+q s+z z z z &.D $.$.Y Y Y Y _ $+z z s+].X.$ N.% h.Y 6       ",
".     ' ) 6 [ 6 [ ! ^ e k.t.z ,+..( j 6 6 j ( 8 S z q+z  +t+*+# ~ k.: |+7 l *.3.3.u.i+J.6 [ 6 j ^ n 2  +z q+z #+8 ( ^ ^ [ | | [ ~+^.T z m.t+*+t ~ k.C 9 6       ",
"+ . .   . . .   . .   ' }+;+8 N.l )         ) c ..b.A+q > w -   = g+f s.5 [ O o o K.J.@     . .   * B 9 (.!.U D l )     + @ +   { /.Y ..4 B -   @ g+f ; 5 .     ",
"@ @ .       . . .     + 0 ! e | 5 '         ' ) ( ..z.2 G.:++   . :+^ 5 ' * , J.J., * .     + @ . + :+a 2 D.D 7 / '   + @ +     = ) | G.| { +   . :+j t - +     ",
"= @ .       + + .     . + + +             .     # $ 9.; -                                 . = ' @ .   * & % 9 j     + = = +           + @ +         . + @ + .   "};
